<?xml version="1.0" encoding="UTF-8"?>
<svg xmlns="http://www.w3.org/2000/svg" xmlns:xlink="http://www.w3.org/1999/xlink" width="96px" height="27px" viewBox="0 0 94 27" version="1.1">
<g id="surface1">
<path style=" stroke:none;fill-rule:nonzero;fill:rgb(50.196078%,50.196078%,94.901961%);fill-opacity:1;" d="M 21.558594 9.828125 L 15.75 6.457031 C 15.605469 6.371094 15.425781 6.371094 15.28125 6.457031 L 9.476562 9.828125 C 9.328125 9.910156 9.238281 10.066406 9.238281 10.234375 L 9.238281 16.976562 C 9.238281 17.144531 9.328125 17.300781 9.476562 17.386719 L 15.28125 20.757812 C 15.425781 20.839844 15.605469 20.839844 15.75 20.757812 L 21.558594 17.386719 C 21.703125 17.300781 21.792969 17.144531 21.792969 16.976562 L 21.792969 10.234375 C 21.792969 10.066406 21.703125 9.910156 21.558594 9.828125 Z M 21.558594 9.828125 "/>
<path style=" stroke:none;fill-rule:nonzero;fill:rgb(29.411765%,19.607843%,76.470588%);fill-opacity:1;" d="M 0.417969 12.898438 L 7.355469 0.761719 C 7.609375 0.324219 8.074219 0 8.578125 0 L 22.453125 0 C 22.960938 0 23.425781 0.324219 23.675781 0.761719 L 30.613281 12.871094 C 30.867188 13.3125 30.867188 13.859375 30.613281 14.300781 L 23.675781 26.335938 C 23.425781 26.777344 22.960938 27 22.453125 27 L 8.578125 27 C 8.074219 27 7.609375 26.78125 7.355469 26.34375 L 0.417969 14.289062 C 0.167969 13.859375 0.167969 13.324219 0.417969 12.898438 Z M 6.164062 18.730469 C 6.164062 18.910156 6.269531 19.074219 6.425781 19.164062 L 15.261719 24.289062 C 15.414062 24.378906 15.609375 24.378906 15.761719 24.289062 L 24.605469 19.164062 C 24.761719 19.074219 24.867188 18.910156 24.867188 18.730469 L 24.867188 8.480469 C 24.867188 8.300781 24.761719 8.136719 24.609375 8.046875 L 15.769531 2.921875 C 15.617188 2.832031 15.425781 2.832031 15.269531 2.921875 L 6.425781 8.046875 C 6.273438 8.136719 6.164062 8.300781 6.164062 8.480469 Z M 6.164062 18.730469 "/>
<path style=" stroke:none;fill-rule:nonzero;fill:rgb(6.27451%,9.411765%,15.686275%);fill-opacity:1;" d="M 40.144531 20.347656 L 40.144531 6.652344 L 48.824219 6.652344 L 48.824219 8.785156 L 42.5 8.785156 L 42.5 12.382812 L 48.28125 12.382812 L 48.28125 14.519531 L 42.5 14.519531 L 42.5 18.214844 L 48.921875 18.214844 L 48.921875 20.347656 Z M 55.066406 20.621094 C 54.027344 20.621094 53.105469 20.4375 52.300781 20.074219 C 51.511719 19.695312 50.886719 19.152344 50.433594 18.449219 C 49.980469 17.746094 49.753906 16.886719 49.753906 15.867188 L 49.753906 15.359375 L 52.070312 15.359375 L 52.070312 15.867188 C 52.070312 16.765625 52.339844 17.4375 52.886719 17.882812 C 53.429688 18.324219 54.15625 18.546875 55.066406 18.546875 C 55.988281 18.546875 56.679688 18.359375 57.148438 17.980469 C 57.617188 17.601562 57.847656 17.113281 57.847656 16.511719 C 57.847656 16.109375 57.738281 15.78125 57.519531 15.535156 C 57.296875 15.273438 56.972656 15.066406 56.546875 14.910156 C 56.128906 14.753906 55.625 14.601562 55.027344 14.457031 L 54.441406 14.339844 C 53.546875 14.132812 52.769531 13.871094 52.109375 13.558594 C 51.460938 13.234375 50.960938 12.816406 50.609375 12.308594 C 50.257812 11.796875 50.082031 11.132812 50.082031 10.3125 C 50.082031 9.488281 50.277344 8.785156 50.667969 8.199219 C 51.058594 7.609375 51.609375 7.160156 52.320312 6.847656 C 53.035156 6.535156 53.871094 6.378906 54.832031 6.378906 C 55.792969 6.378906 56.648438 6.539062 57.402344 6.867188 C 58.152344 7.191406 58.746094 7.683594 59.171875 8.335938 C 59.613281 8.988281 59.835938 9.800781 59.835938 10.78125 L 59.835938 11.425781 L 57.519531 11.425781 L 57.519531 10.78125 C 57.519531 10.21875 57.40625 9.769531 57.1875 9.429688 C 56.964844 9.089844 56.65625 8.84375 56.253906 8.6875 C 55.851562 8.53125 55.378906 8.453125 54.832031 8.453125 C 54.027344 8.453125 53.417969 8.609375 53.003906 8.921875 C 52.589844 9.234375 52.378906 9.679688 52.378906 10.253906 C 52.378906 10.617188 52.472656 10.929688 52.652344 11.191406 C 52.847656 11.4375 53.125 11.648438 53.488281 11.816406 C 53.867188 11.972656 54.332031 12.109375 54.890625 12.226562 L 55.476562 12.363281 C 56.410156 12.574219 57.226562 12.839844 57.925781 13.167969 C 58.628906 13.480469 59.171875 13.898438 59.5625 14.417969 C 59.964844 14.941406 60.164062 15.621094 60.164062 16.453125 C 60.164062 17.277344 59.949219 18 59.523438 18.625 C 59.109375 19.253906 58.515625 19.742188 57.75 20.09375 C 57 20.445312 56.105469 20.621094 55.066406 20.621094 Z M 61.632812 20.347656 L 61.632812 6.652344 L 63.988281 6.652344 L 63.988281 18.214844 L 70.371094 18.214844 L 70.371094 20.347656 Z M 71.691406 20.347656 L 71.691406 10.683594 L 73.933594 10.683594 L 73.933594 20.347656 Z M 72.804688 9.449219 C 72.398438 9.449219 72.050781 9.320312 71.753906 9.058594 C 71.464844 8.785156 71.324219 8.425781 71.324219 7.984375 C 71.324219 7.539062 71.464844 7.1875 71.753906 6.925781 C 72.035156 6.65625 72.414062 6.511719 72.804688 6.515625 C 73.230469 6.515625 73.582031 6.652344 73.855469 6.925781 C 74.140625 7.1875 74.28125 7.539062 74.28125 7.984375 C 74.28125 8.425781 74.140625 8.785156 73.855469 9.058594 C 73.582031 9.320312 73.230469 9.449219 72.804688 9.449219 Z M 76.183594 20.347656 L 76.183594 10.683594 L 78.382812 10.683594 L 78.382812 12.03125 L 78.714844 12.03125 C 78.882812 11.667969 79.1875 11.320312 79.628906 10.996094 C 80.070312 10.667969 80.738281 10.507812 81.632812 10.507812 C 82.375 10.507812 83.027344 10.675781 83.597656 11.015625 C 84.164062 11.347656 84.625 11.835938 84.921875 12.421875 C 85.246094 13.023438 85.410156 13.734375 85.410156 14.558594 L 85.410156 20.347656 L 83.171875 20.347656 L 83.171875 14.734375 C 83.171875 13.949219 82.976562 13.371094 82.585938 12.992188 C 82.210938 12.601562 81.671875 12.402344 80.972656 12.402344 C 80.179688 12.402344 79.558594 12.671875 79.105469 13.207031 C 78.648438 13.726562 78.421875 14.480469 78.421875 15.457031 L 78.421875 20.347656 Z M 90.964844 20.347656 C 90.34375 20.347656 89.84375 20.164062 89.46875 19.800781 C 89.105469 19.421875 88.921875 18.914062 88.921875 18.273438 L 88.921875 12.542969 L 86.414062 12.542969 L 86.414062 10.683594 L 88.921875 10.683594 L 88.921875 7.570312 L 91.160156 7.570312 L 91.160156 10.683594 L 93.925781 10.683594 L 93.925781 12.542969 L 91.160156 12.542969 L 91.160156 17.902344 C 91.160156 18.292969 91.34375 18.488281 91.707031 18.488281 L 93.632812 18.488281 L 93.632812 20.347656 Z M 90.964844 20.347656 "/>
</g>
</svg>
