<?xml version="1.0" encoding="UTF-8"?>
<svg xmlns="http://www.w3.org/2000/svg" xmlns:xlink="http://www.w3.org/1999/xlink" width="96px" height="96px" viewBox="0 0 96 96" version="1.1">
<defs>
<radialGradient id="radial0" gradientUnits="userSpaceOnUse" cx="0" cy="0" fx="0" fy="0" r="1" gradientTransform="matrix(34.29998,36.61531,-37.504212,35.132674,75.824999,77.794802)">
<stop offset="0" style="stop-color:rgb(40.784314%,87.843137%,28.235294%);stop-opacity:1;"/>
<stop offset="1" style="stop-color:rgb(36.078431%,87.843137%,28.627451%);stop-opacity:0;"/>
</radialGradient>
<radialGradient id="radial1" gradientUnits="userSpaceOnUse" cx="0" cy="0" fx="0" fy="0" r="1" gradientTransform="matrix(-37.624749,34.641387,-35.615129,-38.682351,19.29999,77.436001)">
<stop offset="0" style="stop-color:rgb(18.823529%,54.901961%,99.607843%);stop-opacity:1;"/>
<stop offset="1" style="stop-color:rgb(18.431373%,54.509804%,100%);stop-opacity:0;"/>
</radialGradient>
<radialGradient id="radial2" gradientUnits="userSpaceOnUse" cx="0" cy="0" fx="0" fy="0" r="1" gradientTransform="matrix(29.750043,4.128213,-4.338588,31.266117,74.25,53.025599)">
<stop offset="0" style="stop-color:rgb(99.215686%,83.529412%,6.666667%);stop-opacity:1;"/>
<stop offset="1" style="stop-color:rgb(99.215686%,82.352941%,5.098039%);stop-opacity:0;"/>
</radialGradient>
<radialGradient id="radial3" gradientUnits="userSpaceOnUse" cx="0" cy="0" fx="0" fy="0" r="1" gradientTransform="matrix(-26.774831,-35.359037,36.028469,-27.281743,20.34999,36.333301)">
<stop offset="0" style="stop-color:rgb(97.647059%,15.686275%,76.078431%);stop-opacity:1;"/>
<stop offset="1" style="stop-color:rgb(97.647059%,13.333333%,73.72549%);stop-opacity:0;"/>
</radialGradient>
<radialGradient id="radial4" gradientUnits="userSpaceOnUse" cx="0" cy="0" fx="0" fy="0" r="1" gradientTransform="matrix(19.94999,-39.846157,40.26088,20.157632,53.600098,20.00001)">
<stop offset="0" style="stop-color:rgb(97.647059%,2.745098%,0%);stop-opacity:1;"/>
<stop offset="1" style="stop-color:rgb(97.647059%,2.745098%,0%);stop-opacity:0;"/>
</radialGradient>
<radialGradient id="radial5" gradientUnits="userSpaceOnUse" cx="0" cy="0" fx="0" fy="0" r="1" gradientTransform="matrix(11.024993,-24.410266,24.625082,11.122016,85.449898,18.20514)">
<stop offset="0" style="stop-color:rgb(98.431373%,25.882353%,0%);stop-opacity:1;"/>
<stop offset="1" style="stop-color:rgb(98.431373%,26.27451%,0%);stop-opacity:0;"/>
</radialGradient>
<radialGradient id="radial6" gradientUnits="userSpaceOnUse" cx="0" cy="0" fx="0" fy="0" r="1" gradientTransform="matrix(-16.449996,-17.23079,17.657525,-16.857394,14.75001,16.230781)">
<stop offset="0" style="stop-color:rgb(99.607843%,5.098039%,53.333333%);stop-opacity:1;"/>
<stop offset="1" style="stop-color:rgb(99.607843%,5.098039%,53.333333%);stop-opacity:0;"/>
</radialGradient>
</defs>
<g id="surface1">
<path style=" stroke:none;fill-rule:nonzero;fill:rgb(100%,100%,100%);fill-opacity:1;" d="M 6 36.398438 C 6 25.757812 6 20.4375 8.070312 16.375 C 9.890625 12.800781 12.800781 9.890625 16.375 8.070312 C 20.4375 6 25.757812 6 36.398438 6 L 59.601562 6 C 70.242188 6 75.5625 6 79.625 8.070312 C 83.199219 9.890625 86.109375 12.800781 87.929688 16.375 C 90 20.4375 90 25.757812 90 36.398438 L 90 59.601562 C 90 70.242188 90 75.5625 87.929688 79.625 C 86.109375 83.199219 83.199219 86.109375 79.625 87.929688 C 75.5625 90 70.242188 90 59.601562 90 L 36.398438 90 C 25.757812 90 20.4375 90 16.375 87.929688 C 12.800781 86.109375 9.890625 83.199219 8.070312 79.625 C 6 75.5625 6 70.242188 6 59.601562 Z M 6 36.398438 "/>
<path style=" stroke:none;fill-rule:nonzero;fill:url(#radial0);" d="M 6 36.398438 C 6 25.757812 6 20.4375 8.070312 16.375 C 9.890625 12.800781 12.800781 9.890625 16.375 8.070312 C 20.4375 6 25.757812 6 36.398438 6 L 59.601562 6 C 70.242188 6 75.5625 6 79.625 8.070312 C 83.199219 9.890625 86.109375 12.800781 87.929688 16.375 C 90 20.4375 90 25.757812 90 36.398438 L 90 59.601562 C 90 70.242188 90 75.5625 87.929688 79.625 C 86.109375 83.199219 83.199219 86.109375 79.625 87.929688 C 75.5625 90 70.242188 90 59.601562 90 L 36.398438 90 C 25.757812 90 20.4375 90 16.375 87.929688 C 12.800781 86.109375 9.890625 83.199219 8.070312 79.625 C 6 75.5625 6 70.242188 6 59.601562 Z M 6 36.398438 "/>
<path style=" stroke:none;fill-rule:nonzero;fill:url(#radial1);" d="M 6 36.398438 C 6 25.757812 6 20.4375 8.070312 16.375 C 9.890625 12.800781 12.800781 9.890625 16.375 8.070312 C 20.4375 6 25.757812 6 36.398438 6 L 59.601562 6 C 70.242188 6 75.5625 6 79.625 8.070312 C 83.199219 9.890625 86.109375 12.800781 87.929688 16.375 C 90 20.4375 90 25.757812 90 36.398438 L 90 59.601562 C 90 70.242188 90 75.5625 87.929688 79.625 C 86.109375 83.199219 83.199219 86.109375 79.625 87.929688 C 75.5625 90 70.242188 90 59.601562 90 L 36.398438 90 C 25.757812 90 20.4375 90 16.375 87.929688 C 12.800781 86.109375 9.890625 83.199219 8.070312 79.625 C 6 75.5625 6 70.242188 6 59.601562 Z M 6 36.398438 "/>
<path style=" stroke:none;fill-rule:nonzero;fill:url(#radial2);" d="M 6 36.398438 C 6 25.757812 6 20.4375 8.070312 16.375 C 9.890625 12.800781 12.800781 9.890625 16.375 8.070312 C 20.4375 6 25.757812 6 36.398438 6 L 59.601562 6 C 70.242188 6 75.5625 6 79.625 8.070312 C 83.199219 9.890625 86.109375 12.800781 87.929688 16.375 C 90 20.4375 90 25.757812 90 36.398438 L 90 59.601562 C 90 70.242188 90 75.5625 87.929688 79.625 C 86.109375 83.199219 83.199219 86.109375 79.625 87.929688 C 75.5625 90 70.242188 90 59.601562 90 L 36.398438 90 C 25.757812 90 20.4375 90 16.375 87.929688 C 12.800781 86.109375 9.890625 83.199219 8.070312 79.625 C 6 75.5625 6 70.242188 6 59.601562 Z M 6 36.398438 "/>
<path style=" stroke:none;fill-rule:nonzero;fill:url(#radial3);" d="M 6 36.398438 C 6 25.757812 6 20.4375 8.070312 16.375 C 9.890625 12.800781 12.800781 9.890625 16.375 8.070312 C 20.4375 6 25.757812 6 36.398438 6 L 59.601562 6 C 70.242188 6 75.5625 6 79.625 8.070312 C 83.199219 9.890625 86.109375 12.800781 87.929688 16.375 C 90 20.4375 90 25.757812 90 36.398438 L 90 59.601562 C 90 70.242188 90 75.5625 87.929688 79.625 C 86.109375 83.199219 83.199219 86.109375 79.625 87.929688 C 75.5625 90 70.242188 90 59.601562 90 L 36.398438 90 C 25.757812 90 20.4375 90 16.375 87.929688 C 12.800781 86.109375 9.890625 83.199219 8.070312 79.625 C 6 75.5625 6 70.242188 6 59.601562 Z M 6 36.398438 "/>
<path style=" stroke:none;fill-rule:nonzero;fill:url(#radial4);" d="M 6 36.398438 C 6 25.757812 6 20.4375 8.070312 16.375 C 9.890625 12.800781 12.800781 9.890625 16.375 8.070312 C 20.4375 6 25.757812 6 36.398438 6 L 59.601562 6 C 70.242188 6 75.5625 6 79.625 8.070312 C 83.199219 9.890625 86.109375 12.800781 87.929688 16.375 C 90 20.4375 90 25.757812 90 36.398438 L 90 59.601562 C 90 70.242188 90 75.5625 87.929688 79.625 C 86.109375 83.199219 83.199219 86.109375 79.625 87.929688 C 75.5625 90 70.242188 90 59.601562 90 L 36.398438 90 C 25.757812 90 20.4375 90 16.375 87.929688 C 12.800781 86.109375 9.890625 83.199219 8.070312 79.625 C 6 75.5625 6 70.242188 6 59.601562 Z M 6 36.398438 "/>
<path style=" stroke:none;fill-rule:nonzero;fill:url(#radial5);" d="M 6 36.398438 C 6 25.757812 6 20.4375 8.070312 16.375 C 9.890625 12.800781 12.800781 9.890625 16.375 8.070312 C 20.4375 6 25.757812 6 36.398438 6 L 59.601562 6 C 70.242188 6 75.5625 6 79.625 8.070312 C 83.199219 9.890625 86.109375 12.800781 87.929688 16.375 C 90 20.4375 90 25.757812 90 36.398438 L 90 59.601562 C 90 70.242188 90 75.5625 87.929688 79.625 C 86.109375 83.199219 83.199219 86.109375 79.625 87.929688 C 75.5625 90 70.242188 90 59.601562 90 L 36.398438 90 C 25.757812 90 20.4375 90 16.375 87.929688 C 12.800781 86.109375 9.890625 83.199219 8.070312 79.625 C 6 75.5625 6 70.242188 6 59.601562 Z M 6 36.398438 "/>
<path style=" stroke:none;fill-rule:nonzero;fill:url(#radial6);" d="M 6 36.398438 C 6 25.757812 6 20.4375 8.070312 16.375 C 9.890625 12.800781 12.800781 9.890625 16.375 8.070312 C 20.4375 6 25.757812 6 36.398438 6 L 59.601562 6 C 70.242188 6 75.5625 6 79.625 8.070312 C 83.199219 9.890625 86.109375 12.800781 87.929688 16.375 C 90 20.4375 90 25.757812 90 36.398438 L 90 59.601562 C 90 70.242188 90 75.5625 87.929688 79.625 C 86.109375 83.199219 83.199219 86.109375 79.625 87.929688 C 75.5625 90 70.242188 90 59.601562 90 L 36.398438 90 C 25.757812 90 20.4375 90 16.375 87.929688 C 12.800781 86.109375 9.890625 83.199219 8.070312 79.625 C 6 75.5625 6 70.242188 6 59.601562 Z M 6 36.398438 "/>
<path style=" stroke:none;fill-rule:nonzero;fill:rgb(100%,100%,100%);fill-opacity:1;" d="M 73.410156 31.308594 C 68.964844 26.390625 62.699219 23.625 56.191406 23.660156 C 49.820312 23.660156 43.347656 26.460938 39.179688 30.984375 C 38.410156 30.914062 37.640625 30.839844 36.90625 30.839844 C 24.410156 30.839844 16.675781 41.609375 16.675781 51.589844 C 16.710938 56.976562 18.742188 62.144531 22.347656 66.09375 C 26.125 70.222656 31.375 72.554688 36.90625 72.554688 L 56.191406 72.554688 C 69.28125 72.554688 79.921875 61.535156 79.921875 48.035156 C 79.851562 41.824219 77.539062 35.867188 73.410156 31.308594 Z M 36.519531 69.035156 C 27.246094 69.035156 19.753906 61.320312 19.753906 51.804688 C 19.753906 42.363281 27.210938 34.683594 36.449219 34.609375 C 40.546875 34.609375 44.851562 35.976562 47.582031 38.953125 L 54.617188 46.347656 C 55.769531 47.570312 55.734375 49.507812 54.546875 50.691406 C 53.355469 51.878906 51.464844 51.839844 50.3125 50.621094 L 43.449219 43.371094 C 38.972656 39.421875 32.214844 39.921875 28.367188 44.519531 C 26.6875 46.492188 25.777344 49.042969 25.777344 51.660156 C 25.777344 57.691406 30.78125 62.789062 36.695312 62.789062 L 38.0625 62.789062 C 40.019531 65.589844 45.515625 69.035156 45.515625 69.035156 Z M 70.890625 62.863281 C 67.144531 66.882812 61.964844 69.144531 56.539062 69.179688 C 51.394531 69.179688 46.144531 66.8125 42.121094 62.71875 L 32.949219 53.242188 C 31.796875 52.019531 31.832031 50.082031 32.984375 48.898438 C 33.546875 48.324219 34.28125 48.035156 35.085938 48.035156 C 35.890625 48.035156 36.660156 48.359375 37.21875 48.96875 L 46.355469 58.339844 C 49.261719 61.320312 52.96875 63.003906 56.539062 63.003906 C 60.355469 63.003906 63.996094 61.390625 66.621094 58.519531 C 69.316406 55.683594 70.820312 51.878906 70.820312 47.929688 C 70.820312 39.816406 64.382812 33.246094 56.472656 33.210938 C 53.460938 33.210938 50.976562 33.820312 48.527344 35.578125 C 47.140625 34.15625 44.152344 32.742188 42.785156 32.457031 C 46.566406 28.832031 51.289062 27.070312 56.472656 27.070312 C 67.707031 27.070312 76.769531 36.40625 76.804688 47.929688 C 76.804688 53.492188 74.707031 58.878906 70.890625 62.863281 Z M 70.890625 62.863281 "/>
</g>
</svg>
