<?xml version="1.0" encoding="UTF-8"?>
<svg xmlns="http://www.w3.org/2000/svg" xmlns:xlink="http://www.w3.org/1999/xlink" width="96px" height="96px" viewBox="0 0 96 96" version="1.1">
<g id="surface1">
<rect x="0" y="0" width="96" height="96" style="fill:rgb(96.862745%,87.450981%,11.764706%);fill-opacity:1;stroke:none;"/>
<path style=" stroke:none;fill-rule:nonzero;fill:rgb(0%,0%,0%);fill-opacity:1;" d="M 25.242188 80.226562 L 32.589844 75.777344 C 34.003906 78.292969 35.296875 80.417969 38.386719 80.417969 C 41.351562 80.417969 43.222656 79.257812 43.222656 74.746094 L 43.222656 44.074219 L 52.242188 44.074219 L 52.242188 74.875 C 52.242188 84.21875 46.765625 88.472656 38.773438 88.472656 C 31.558594 88.472656 27.367188 84.734375 25.242188 80.222656 "/>
<path style=" stroke:none;fill-rule:nonzero;fill:rgb(0%,0%,0%);fill-opacity:1;" d="M 57.144531 79.257812 L 64.488281 75.003906 C 66.421875 78.164062 68.933594 80.484375 73.382812 80.484375 C 77.121094 80.484375 79.503906 78.613281 79.503906 76.035156 C 79.503906 72.941406 77.054688 71.847656 72.929688 70.042969 L 70.675781 69.074219 C 64.167969 66.304688 59.847656 62.824219 59.847656 55.480469 C 59.847656 48.714844 65.003906 43.558594 73.058594 43.558594 C 78.796875 43.558594 82.917969 45.554688 85.882812 50.773438 L 78.859375 55.285156 C 77.3125 52.515625 75.636719 51.417969 73.058594 51.417969 C 70.417969 51.417969 68.742188 53.09375 68.742188 55.285156 C 68.742188 57.992188 70.417969 59.089844 74.285156 60.765625 L 76.539062 61.730469 C 84.207031 65.015625 88.523438 68.367188 88.523438 75.90625 C 88.523438 84.027344 82.144531 88.472656 73.574219 88.472656 C 65.199219 88.472656 59.785156 84.476562 57.144531 79.257812 "/>
</g>
</svg>
