<?xml version="1.0" encoding="UTF-8"?>
<svg xmlns="http://www.w3.org/2000/svg" xmlns:xlink="http://www.w3.org/1999/xlink" width="96px" height="96px" viewBox="0 0 96 96" version="1.1">
<g id="surface1">
<path style=" stroke:none;fill-rule:nonzero;fill:rgb(87.058824%,55.686275%,18.039216%);fill-opacity:1;" d="M 56.25 0 C 58.5 0.75 58.5 0.75 59.4375 2.625 C 60.667969 8.371094 59.324219 13.078125 56.25 18 C 54.640625 19.9375 52.875 21.664062 51.046875 23.390625 C 50.363281 24.054688 50.363281 24.054688 49.664062 24.730469 C 47.667969 26.667969 45.65625 28.589844 43.636719 30.507812 C 40.703125 33.632812 40.160156 36.027344 40.261719 40.222656 C 40.921875 45.171875 44.003906 48.894531 47.25 52.5 C 46.507812 52.871094 46.507812 52.871094 45.75 53.25 C 40.84375 49.847656 35.238281 45.859375 33.75 39.75 C 33.28125 34.988281 33.84375 31.617188 36.75 27.75 C 40.160156 24.28125 43.820312 21.125 47.539062 17.992188 C 51.339844 14.769531 54.632812 11.601562 56.25 6.75 C 56.300781 5.578125 56.3125 4.40625 56.296875 3.234375 C 56.289062 2.628906 56.285156 2.023438 56.277344 1.398438 C 56.269531 0.9375 56.257812 0.476562 56.25 0 Z M 56.25 0 "/>
<path style=" stroke:none;fill-rule:nonzero;fill:rgb(25.490196%,45.098039%,58.823529%);fill-opacity:1;" d="M 27.75 78 C 25.78125 79.3125 23.785156 80.539062 21.75 81.75 C 21.996094 82.492188 22.246094 83.234375 22.5 84 C 24.414062 84.753906 24.414062 84.753906 26.71875 85.21875 C 27.871094 85.488281 27.871094 85.488281 29.046875 85.765625 C 43.371094 88.601562 63.105469 89.429688 75.75 81 C 76.5 81.75 76.5 81.75 76.546875 83.671875 C 76.53125 84.273438 76.515625 84.878906 76.5 85.5 C 71.503906 89.035156 65.925781 89.792969 60 90.75 C 59.382812 90.851562 58.765625 90.949219 58.132812 91.054688 C 44.128906 92.847656 27.433594 92.476562 14.25 87 C 12.75 85.5 12.75 85.5 12.65625 83.71875 C 13.796875 81.054688 15.214844 80.53125 17.800781 79.390625 C 24.433594 76.894531 24.433594 76.894531 27.75 78 Z M 27.75 78 "/>
<path style=" stroke:none;fill-rule:nonzero;fill:rgb(86.666667%,55.294118%,18.039216%);fill-opacity:1;" d="M 66 19.5 C 66 19.996094 66 20.488281 66 21 C 64.65625 21.972656 64.65625 21.972656 62.859375 23.0625 C 59.316406 25.339844 56.664062 27.671875 54.75 31.5 C 54.339844 35.410156 54.578125 37.542969 56.625 40.921875 C 58.445312 43.941406 59.109375 45.914062 58.5 49.5 C 56.9375 52.398438 55.34375 54.542969 52.5 56.25 C 52.003906 56.25 51.511719 56.25 51 56.25 C 51.152344 55.851562 51.304688 55.449219 51.460938 55.039062 C 52.628906 51.261719 52.644531 49.121094 50.8125 45.5625 C 50.46875 44.972656 50.125 44.378906 49.769531 43.769531 C 47.480469 39.792969 46.792969 36.753906 48 32.25 C 51.136719 26.214844 58.820312 19.5 66 19.5 Z M 66 19.5 "/>
<path style=" stroke:none;fill-rule:nonzero;fill:rgb(25.490196%,45.490196%,58.431373%);fill-opacity:1;" d="M 37.5 52.5 C 35.050781 54.132812 32.714844 55.125 30 56.25 C 35.628906 57.757812 40.878906 57.976562 46.6875 57.9375 C 47.542969 57.941406 48.394531 57.949219 49.273438 57.953125 C 54.554688 57.941406 59.503906 57.457031 64.6875 56.425781 C 66.933594 56.234375 67.882812 56.542969 69.75 57.75 C 69.75 58.246094 69.75 58.738281 69.75 59.25 C 68.359375 59.613281 66.96875 59.972656 65.578125 60.328125 C 64.804688 60.527344 64.03125 60.726562 63.230469 60.933594 C 51.273438 63.660156 36.535156 63.714844 24.75 60 C 22.9375 58.796875 22.9375 58.796875 21.75 57.75 C 22.261719 56.332031 22.261719 56.332031 23.25 54.75 C 27.785156 52.703125 32.585938 52.222656 37.5 52.5 Z M 37.5 52.5 "/>
<path style=" stroke:none;fill-rule:nonzero;fill:rgb(25.882353%,45.490196%,58.431373%);fill-opacity:1;" d="M 33.75 64.5 C 33.75 64.996094 33.75 65.488281 33.75 66 C 42.757812 67.984375 50.789062 67.726562 59.8125 66.035156 C 62.25 66 62.25 66 64.078125 67.464844 C 64.65625 68.226562 64.65625 68.226562 65.25 69 C 64.351562 69.355469 63.457031 69.710938 62.53125 70.078125 C 61.773438 70.378906 61.773438 70.378906 61 70.683594 C 51.339844 73.800781 37.238281 73.371094 27.75 69.75 C 27.253906 69.253906 26.761719 68.761719 26.25 68.25 C 26.296875 66.75 26.296875 66.75 27 65.25 C 29.484375 63.839844 31.058594 63.503906 33.75 64.5 Z M 33.75 64.5 "/>
<path style=" stroke:none;fill-rule:nonzero;fill:rgb(25.882353%,45.490196%,58.431373%);fill-opacity:1;" d="M 36.75 74.25 C 36.75 74.992188 36.75 75.734375 36.75 76.5 C 43.195312 77.136719 49.023438 77.253906 55.457031 76.398438 C 58.359375 76.527344 59.445312 77.519531 61.5 79.5 C 53.914062 83.558594 44.101562 83.574219 35.71875 81.890625 C 33.332031 81.109375 31.800781 80.472656 30 78.75 C 30.800781 76.570312 31.253906 75.875 33.375 74.8125 C 35.25 74.25 35.25 74.25 36.75 74.25 Z M 36.75 74.25 "/>
<path style=" stroke:none;fill-rule:nonzero;fill:rgb(25.882353%,45.882353%,58.039216%);fill-opacity:1;" d="M 79.5 85.5 C 79.996094 85.5 80.488281 85.5 81 85.5 C 80.363281 88.289062 79.269531 89.648438 76.96875 91.21875 C 68.5625 96.085938 58.25 96.15625 48.816406 96.179688 C 47.175781 96.1875 45.539062 96.210938 43.898438 96.234375 C 37.175781 96.285156 31.253906 95.621094 24.75 93.75 C 24.75 93.503906 24.75 93.253906 24.75 93 C 26.121094 93.019531 26.121094 93.019531 27.519531 93.035156 C 30.96875 93.078125 34.417969 93.101562 37.871094 93.125 C 39.351562 93.136719 40.832031 93.148438 42.316406 93.167969 C 54.777344 93.332031 66.683594 92.933594 78 87 C 78.496094 86.503906 78.988281 86.011719 79.5 85.5 Z M 79.5 85.5 "/>
<path style=" stroke:none;fill-rule:nonzero;fill:rgb(25.490196%,44.705882%,59.215686%);fill-opacity:1;" d="M 71.25 51.75 C 77.980469 51.28125 77.980469 51.28125 81.046875 53.15625 C 82.753906 55.027344 83.199219 55.796875 83.484375 58.3125 C 83.171875 61.546875 82.398438 62.792969 80.25 65.25 C 76.277344 68.152344 72.304688 70.207031 67.5 71.25 C 68.363281 68.664062 68.988281 68.273438 71.15625 66.75 C 74.789062 64.371094 74.789062 64.371094 76.960938 60.796875 C 77.433594 57.671875 77.433594 57.671875 76.40625 54.796875 C 74.703125 53.832031 73.179688 53.511719 71.25 53.25 C 71.25 52.753906 71.25 52.261719 71.25 51.75 Z M 71.25 51.75 "/>
</g>
</svg>
