<?xml version="1.0" encoding="UTF-8"?>
<svg xmlns="http://www.w3.org/2000/svg" xmlns:xlink="http://www.w3.org/1999/xlink" width="96px" height="96px" viewBox="0 0 96 96" version="1.1">
<g id="surface1">
<path style=" stroke:none;fill-rule:nonzero;fill:rgb(10.196079%,73.725492%,99.607843%);fill-opacity:1;" d="M 51.300781 48 C 51.300781 40.265625 57.414062 34.003906 64.949219 34.003906 C 72.492188 34.003906 78.601562 40.261719 78.601562 48 C 78.601562 55.734375 72.492188 61.996094 64.949219 61.996094 C 57.421875 61.996094 51.300781 55.738281 51.300781 48 Z M 51.300781 48 "/>
<path style=" stroke:none;fill-rule:nonzero;fill:rgb(3.921569%,81.176472%,51.372552%);fill-opacity:1;" d="M 24 76.003906 C 24 68.269531 30.113281 61.996094 37.648438 61.996094 L 51.300781 61.996094 L 51.300781 76.003906 C 51.300781 83.730469 45.1875 90 37.648438 90 C 30.113281 90 24 83.730469 24 76.003906 Z M 24 76.003906 "/>
<path style=" stroke:none;fill-rule:nonzero;fill:rgb(100%,44.705883%,38.431373%);fill-opacity:1;" d="M 51.300781 6 L 51.300781 34.003906 L 64.949219 34.003906 C 72.492188 34.003906 78.601562 27.730469 78.601562 19.996094 C 78.601562 12.269531 72.492188 6 64.949219 6 Z M 51.300781 6 "/>
<path style=" stroke:none;fill-rule:nonzero;fill:rgb(94.901961%,30.588236%,11.764706%);fill-opacity:1;" d="M 24 19.996094 C 24 27.730469 30.113281 34.003906 37.648438 34.003906 L 51.300781 34.003906 L 51.300781 6 L 37.648438 6 C 30.113281 6 24 12.269531 24 19.996094 Z M 24 19.996094 "/>
<path style=" stroke:none;fill-rule:nonzero;fill:rgb(63.529414%,34.901962%,100%);fill-opacity:1;" d="M 24 48 C 24 55.734375 30.113281 61.996094 37.648438 61.996094 L 51.300781 61.996094 L 51.300781 34.003906 L 37.648438 34.003906 C 30.113281 34.003906 24 40.261719 24 48 Z M 24 48 "/>
</g>
</svg>
