<?xml version="1.0" encoding="UTF-8"?>
<svg version="1.1" xmlns="http://www.w3.org/2000/svg" width="432" height="394">
<path d="M0 0 C142.56 0 285.12 0 432 0 C432 130.02 432 260.04 432 394 C289.44 394 146.88 394 0 394 C0 263.98 0 133.96 0 0 Z " fill="#121312" transform="translate(0,0)"/>
<path d="M0 0 C2.97 0 5.94 0 9 0 C9 0.66 9 1.32 9 2 C11.475 2.495 11.475 2.495 14 3 C14 3.66 14 4.32 14 5 C16.97 5.33 19.94 5.66 23 6 C23.99 8.64 24.98 11.28 26 14 C23.69 14 21.38 14 19 14 C19 14.66 19 15.32 19 16 C20.98 16 22.96 16 25 16 C25.495 16.99 25.495 16.99 26 18 C23.36 18 20.72 18 18 18 C17.67 20.31 17.34 22.62 17 25 C17.99 24.67 18.98 24.34 20 24 C23 29.625 23 29.625 23 33 C21.35 33 19.7 33 18 33 C18 32.34 18 31.68 18 31 C15.69 30.67 13.38 30.34 11 30 C11.66 30.33 12.32 30.66 13 31 C13.33 31.99 13.66 32.98 14 34 C17.63 34 21.26 34 25 34 C25 33.34 25 32.68 25 32 C25.99 32 26.98 32 28 32 C27.34 31.566875 26.68 31.13375 26 30.6875 C25.34 30.130625 24.68 29.57375 24 29 C24 28.01 24 27.02 24 26 C23.34 26 22.68 26 22 26 C22.20625 25.38125 22.4125 24.7625 22.625 24.125 C22.810625 23.073125 22.810625 23.073125 23 22 C22.34 21.34 21.68 20.68 21 20 C22.65 19.67 24.3 19.34 26 19 C26 19.66 26 20.32 26 21 C26.66 20.67 27.32 20.34 28 20 C27.814375 19.030625 27.62875 18.06125 27.4375 17.0625 C27.293125 16.051875 27.14875 15.04125 27 14 C27.33 13.67 27.66 13.34 28 13 C27.34 12.34 26.68 11.68 26 11 C26 10.01 26 9.02 26 8 C27.98 7.67 29.96 7.34 32 7 C32 8.98 32 10.96 32 13 C34.31 13.33 36.62 13.66 39 14 C39 14.66 39 15.32 39 16 C40.65 15.67 42.3 15.34 44 15 C43.67 15.99 43.34 16.98 43 18 C43.99 18.53625 44.98 19.0725 46 19.625 C46.99 20.40875 47.98 21.1925 49 22 C49.375 25.25 49.375 25.25 49 28 C47.3603125 28.2165625 47.3603125 28.2165625 45.6875 28.4375 C43.71531062 28.87563765 43.71531062 28.87563765 42 30 C40.47156347 32.88294753 39.68691621 35.82055924 39 39 C39.66 39 40.32 39 41 39 C41 39.66 41 40.32 41 41 C41.86625 40.505 41.86625 40.505 42.75 40 C45 39 45 39 49 39 C49 38.21625 49 37.4325 49 36.625 C49 35.08333333 49 33.54166667 49 32 C48.505 30.515 48.505 30.515 48 29 C51.1875 28.5 51.1875 28.5 55 29 C58.52864127 32.66838944 60 35.92619994 60 41 C59.34 41 58.68 41 58 41 C58.99 44.96 59.98 48.92 61 53 C61 50.36 61 47.72 61 45 C63.94254088 50.49274298 64.10256707 54.84597554 64 61 C62.9171875 60.7215625 62.9171875 60.7215625 61.8125 60.4375 C58.83719673 59.97467505 56.86787998 60.12370334 54 61 C53.505 61.99 53.505 61.99 53 63 C52.34 63 51.68 63 51 63 C51 63.99 51 64.98 51 66 C51.66 66 52.32 66 53 66 C53 66.99 53 67.98 53 69 C52.34 69 51.68 69 51 69 C51.33 69.99 51.66 70.98 52 72 C52.99 70.515 52.99 70.515 54 69 C55.485 69.495 55.485 69.495 57 70 C56.34 70.99 55.68 71.98 55 73 C56.98 73.495 56.98 73.495 59 74 C59.495 79.445 59.495 79.445 60 85 C58.515 83.02 58.515 83.02 57 81 C56.38125 81.66 55.7625 82.32 55.125 83 C53 85 53 85 51 85 C49.49985609 86.33289654 49.49985609 86.33289654 48 88 C46.4375 89.6875 46.4375 89.6875 45 91 C44.34 91 43.68 91 43 91 C42.67 93.64 42.34 96.28 42 99 C42.99 98.67 43.98 98.34 45 98 C44.67 96.35 44.34 94.7 44 93 C47 91 47 91 50 91 C50 91.66 50 92.32 50 93 C50.99 93 51.98 93 53 93 C53 93.66 53 94.32 53 95 C53.598125 94.34 54.19625 93.68 54.8125 93 C57 91 57 91 60 91 C60 91.66 60 92.32 60 93 C59.54625 93.433125 59.0925 93.86625 58.625 94.3125 C56.10102672 96.93354917 55.29699732 100.0861621 54.1875 103.5 C52.67933526 106.67508367 50.56736017 108.63532616 48 111 C48 110.34 48 109.68 48 109 C47.01 109.33 46.02 109.66 45 110 C40.86257729 111.1773154 37.29419657 111.28627977 33 111 C32.01 110.34 31.02 109.68 30 109 C29.8125 106.5 29.8125 106.5 30 104 C30 103.34 30 102.68 30 102 C29.67 104.31 29.34 106.62 29 109 C28.67 109 28.34 109 28 109 C28 106.36 28 103.72 28 101 C26.02 101.99 26.02 101.99 24 103 C24.2784375 104.8871875 24.2784375 104.8871875 24.5625 106.8125 C25.00732761 109.82744268 24.99843846 111.00468461 24 114 C23.34 114 22.68 114 22 114 C21.67 113.34 21.34 112.68 21 112 C21 112.66 21 113.32 21 114 C21.99 114.66 22.98 115.32 24 116 C21.69 116 19.38 116 17 116 C16.67 116.99 16.34 117.98 16 119 C18.49692579 121.49692579 22.38005672 121.29012232 25.6875 121.5625 C27.440625 121.706875 29.19375 121.85125 31 122 C31 128.27 31 134.54 31 141 C30.67 141 30.34 141 30 141 C29.505 133.575 29.505 133.575 29 126 C27.02 126.495 27.02 126.495 25 127 C25 126.34 25 125.68 25 125 C24.030625 125.020625 23.06125 125.04125 22.0625 125.0625 C19 125 19 125 18 124 C17.731875 125.258125 17.46375 126.51625 17.1875 127.8125 C16.35466758 131.21521531 15.45611043 132.54388957 13 135 C12.63858045 137.32914823 12.30300475 139.66253478 12 142 C11.34 142.33 10.68 142.66 10 143 C8.72488893 140.44977787 8.90245886 138.68741052 8.9375 135.8359375 C8.94523437 134.79566406 8.95296875 133.75539062 8.9609375 132.68359375 C8.98670249 130.5012988 9.01273815 128.31900703 9.0390625 126.13671875 C9.0820356 120.31386339 8.89211229 114.75691213 8 109 C9.98 109 11.96 109 14 109 C14.33 107.68 14.66 106.36 15 105 C15.33 105.99 15.66 106.98 16 108 C16.66 106.68 17.32 105.36 18 104 C21 106 21 106 22 109 C21.67 105.7 21.34 102.4 21 99 C20.34 99 19.68 99 19 99 C19.33 99.99 19.66 100.98 20 102 C19.34 102 18.68 102 18 102 C17.34 101.01 16.68 100.02 16 99 C15.3503125 99.99 15.3503125 99.99 14.6875 101 C14.130625 101.66 13.57375 102.32 13 103 C12.01 103 11.02 103 10 103 C8.9375 101.125 8.9375 101.125 8 99 C8.33 98.34 8.66 97.68 9 97 C8.34 97 7.68 97 7 97 C7 98.98 7 100.96 7 103 C6.34 103 5.68 103 5 103 C4.67 101.68 4.34 100.36 4 99 C4.66 99 5.32 99 6 99 C6 97.68 6 96.36 6 95 C4.824375 94.5359375 4.824375 94.5359375 3.625 94.0625 C1 93 1 93 -1 92 C-1 91.34 -1 90.68 -1 90 C-0.34 90 0.32 90 1 90 C1 85.71 1 81.42 1 77 C1.33 77 1.66 77 2 77 C2.33 78.98 2.66 80.96 3 83 C3.99 82.505 3.99 82.505 5 82 C5.65772428 78.97065509 5.65772428 78.97065509 6 76 C6.66 76.99 7.32 77.98 8 79 C8.66 79 9.32 79 10 79 C10 79.99 10 80.98 10 82 C10.66 82.33 11.32 82.66 12 83 C12.33 78.05 12.66 73.1 13 68 C14.65 68 16.3 68 18 68 C17.505 64.535 17.505 64.535 17 61 C17.33 61.66 17.66 62.32 18 63 C18.66 63 19.32 63 20 63 C20.33 61.68 20.66 60.36 21 59 C21.66 59 22.32 59 23 59 C23.33 59.99 23.66 60.98 24 62 C27.09996942 60.06336709 27.09996942 60.06336709 28.625 56.875 C28.810625 55.946875 28.810625 55.946875 29 55 C29.66 54.67 30.32 54.34 31 54 C29.02 53.01 27.04 52.02 25 51 C25 51.66 25 52.32 25 53 C24.34 53 23.68 53 23 53 C23.33 51.68 23.66 50.36 24 49 C26.31 49.33 28.62 49.66 31 50 C31 49.34 31 48.68 31 48 C29.35 48 27.7 48 26 48 C25.505 46.02 25.505 46.02 25 44 C28.63 43.34 32.26 42.68 36 42 C36.33 40.02 36.66 38.04 37 36 C35.55802132 37.44197868 34.88213756 39.17691571 34 41 C32.02 41 30.04 41 28 41 C27.67 40.01 27.34 39.02 27 38 C20.73 38 14.46 38 8 38 C8 37.34 8 36.68 8 36 C4.04 35.34 0.08 34.68 -4 34 C-4.99 36.475 -4.99 36.475 -6 39 C-6.33 39.66 -6.66 40.32 -7 41 C-7.66 41 -8.32 41 -9 41 C-9.33 41.66 -9.66 42.32 -10 43 C-10.33 42.34 -10.66 41.68 -11 41 C-11.66 41.99 -12.32 42.98 -13 44 C-13.625 41.625 -13.625 41.625 -14 39 C-13.34 38.34 -12.68 37.68 -12 37 C-11.01 37 -10.02 37 -9 37 C-6.08480449 31.23647361 -6.08480449 31.23647361 -7 25 C-4.36 25 -1.72 25 1 25 C1 24.34 1 23.68 1 23 C-2.96 23.495 -2.96 23.495 -7 24 C-7.66 22.68 -8.32 21.36 -9 20 C-10.65 20 -12.3 20 -14 20 C-13.67 18.35 -13.34 16.7 -13 15 C-13.66 14.67 -14.32 14.34 -15 14 C-13.02 13.67 -11.04 13.34 -9 13 C-9.20625 12.38125 -9.4125 11.7625 -9.625 11.125 C-9.74875 10.42375 -9.8725 9.7225 -10 9 C-9.34 8.34 -8.68 7.68 -8 7 C-7.30251417 5.68252676 -6.63040043 4.35085807 -6 3 C-6 3.66 -6 4.32 -6 5 C-2.37206002 3.13433512 -2.37206002 3.13433512 0 0 Z M52 95 C53 98 53 98 53 98 Z M64 70 C65.08683991 73.26051972 64.98760508 75.22978132 64.6875 78.625 C64.60886719 79.60726562 64.53023438 80.58953125 64.44921875 81.6015625 C64.22685547 82.78878906 64.22685547 82.78878906 64 84 C63.01 84.495 63.01 84.495 62 85 C62.33 82.03 62.66 79.06 63 76 C62.34 76 61.68 76 61 76 C60.67 76.99 60.34 77.98 60 79 C60 76.69 60 74.38 60 72 C60.99 72.495 60.99 72.495 62 73 C62.66 72.01 63.32 71.02 64 70 Z " fill="#151614" transform="translate(223,35)"/>
<path d="M0 0 C2.97 0 5.94 0 9 0 C9 0.66 9 1.32 9 2 C11.475 2.495 11.475 2.495 14 3 C14 3.66 14 4.32 14 5 C16.97 5.33 19.94 5.66 23 6 C23.99 8.64 24.98 11.28 26 14 C23.69 14 21.38 14 19 14 C19 14.66 19 15.32 19 16 C20.98 16 22.96 16 25 16 C25.495 16.99 25.495 16.99 26 18 C23.36 18 20.72 18 18 18 C17.67 20.31 17.34 22.62 17 25 C17.99 24.67 18.98 24.34 20 24 C23 29.625 23 29.625 23 33 C21.35 33 19.7 33 18 33 C18 32.34 18 31.68 18 31 C15.69 30.67 13.38 30.34 11 30 C11.66 30.33 12.32 30.66 13 31 C13.33 31.99 13.66 32.98 14 34 C17.63 34 21.26 34 25 34 C25 33.34 25 32.68 25 32 C25.99 32 26.98 32 28 32 C27.34 31.566875 26.68 31.13375 26 30.6875 C25.34 30.130625 24.68 29.57375 24 29 C24 28.01 24 27.02 24 26 C23.34 26 22.68 26 22 26 C22.20625 25.38125 22.4125 24.7625 22.625 24.125 C22.810625 23.073125 22.810625 23.073125 23 22 C22.34 21.34 21.68 20.68 21 20 C22.65 19.67 24.3 19.34 26 19 C26 19.66 26 20.32 26 21 C26.66 20.67 27.32 20.34 28 20 C27.814375 19.030625 27.62875 18.06125 27.4375 17.0625 C27.293125 16.051875 27.14875 15.04125 27 14 C27.33 13.67 27.66 13.34 28 13 C27.34 12.34 26.68 11.68 26 11 C26 10.01 26 9.02 26 8 C27.98 7.67 29.96 7.34 32 7 C32 8.98 32 10.96 32 13 C34.31 13.33 36.62 13.66 39 14 C39 14.66 39 15.32 39 16 C40.65 15.67 42.3 15.34 44 15 C43.67 15.99 43.34 16.98 43 18 C43.99 18.53625 44.98 19.0725 46 19.625 C46.99 20.40875 47.98 21.1925 49 22 C49.375 25.25 49.375 25.25 49 28 C47.3603125 28.2165625 47.3603125 28.2165625 45.6875 28.4375 C43.71531062 28.87563765 43.71531062 28.87563765 42 30 C40.47156347 32.88294753 39.68691621 35.82055924 39 39 C39.66 39 40.32 39 41 39 C41 39.66 41 40.32 41 41 C41.5775 40.649375 42.155 40.29875 42.75 39.9375 C45.35801776 38.85082593 46.39417629 39.06934867 49 40 C48.34 40 47.68 40 47 40 C47 40.66 47 41.32 47 42 C47.99 42.495 47.99 42.495 49 43 C48.34 43 47.68 43 47 43 C47 43.66 47 44.32 47 45 C46.21625 45.268125 45.4325 45.53625 44.625 45.8125 C41.71885077 46.84814432 41.71885077 46.84814432 40 50 C40 49.34 40 48.68 40 48 C39.01 48 38.02 48 37 48 C37 47.34 37 46.68 37 46 C34.69 45.67 32.38 45.34 30 45 C30 45.66 30 46.32 30 47 C28.35 47 26.7 47 25 47 C25 46.01 25 45.02 25 44 C28.63 43.34 32.26 42.68 36 42 C36.33 40.02 36.66 38.04 37 36 C35.55802132 37.44197868 34.88213756 39.17691571 34 41 C32.02 41 30.04 41 28 41 C27.67 40.01 27.34 39.02 27 38 C20.73 38 14.46 38 8 38 C8 37.34 8 36.68 8 36 C4.04 35.34 0.08 34.68 -4 34 C-4.99 36.475 -4.99 36.475 -6 39 C-6.33 39.66 -6.66 40.32 -7 41 C-7.66 41 -8.32 41 -9 41 C-9.33 41.66 -9.66 42.32 -10 43 C-10.33 42.34 -10.66 41.68 -11 41 C-11.66 41.99 -12.32 42.98 -13 44 C-13.625 41.625 -13.625 41.625 -14 39 C-13.34 38.34 -12.68 37.68 -12 37 C-11.01 37 -10.02 37 -9 37 C-6.08480449 31.23647361 -6.08480449 31.23647361 -7 25 C-4.36 25 -1.72 25 1 25 C1 24.34 1 23.68 1 23 C-2.96 23.495 -2.96 23.495 -7 24 C-7.66 22.68 -8.32 21.36 -9 20 C-10.65 20 -12.3 20 -14 20 C-13.67 18.35 -13.34 16.7 -13 15 C-13.66 14.67 -14.32 14.34 -15 14 C-13.02 13.67 -11.04 13.34 -9 13 C-9.20625 12.38125 -9.4125 11.7625 -9.625 11.125 C-9.74875 10.42375 -9.8725 9.7225 -10 9 C-9.34 8.34 -8.68 7.68 -8 7 C-7.30251417 5.68252676 -6.63040043 4.35085807 -6 3 C-6 3.66 -6 4.32 -6 5 C-2.37206002 3.13433512 -2.37206002 3.13433512 0 0 Z " fill="#21231D" transform="translate(223,35)"/>
<path d="M0 0 C0.66 2.31 1.32 4.62 2 7 C2.33 6.34 2.66 5.68 3 5 C3.66 5 4.32 5 5 5 C5.33 6.32 5.66 7.64 6 9 C8.97 9.495 8.97 9.495 12 10 C12 10.99 12 11.98 12 13 C12.66 13.33 13.32 13.66 14 14 C14 15.32 14 16.64 14 18 C15.32 18.33 16.64 18.66 18 19 C18 19.66 18 20.32 18 21 C22.62 21.66 27.24 22.32 32 23 C29 25 29 25 26.37109375 24.79296875 C25.40300781 24.59316406 24.43492187 24.39335938 23.4375 24.1875 C21.98150391 23.89939453 21.98150391 23.89939453 20.49609375 23.60546875 C18 23 18 23 16 22 C16 22.66 16 23.32 16 24 C16.598125 24.268125 17.19625 24.53625 17.8125 24.8125 C19.97224808 25.98493467 21.35790256 27.19369282 23 29 C22.01 29.99 21.02 30.98 20 32 C20.33 32.66 20.66 33.32 21 34 C21 33.34 21 32.68 21 32 C24.36683915 29.56839395 25.73350364 29 30 29 C30.474375 28.175 30.94875 27.35 31.4375 26.5 C32.2109375 25.2625 32.2109375 25.2625 33 24 C35.6875 23.6875 35.6875 23.6875 38 24 C38.33 23.34 38.66 22.68 39 22 C39 22.99 39 23.98 39 25 C41.29629994 26.14814997 43.07698086 26.30769809 45.625 26.5625 C46.85089844 26.68818359 46.85089844 26.68818359 48.1015625 26.81640625 C49.04128906 26.90728516 49.04128906 26.90728516 50 27 C49.67 27.66 49.34 28.32 49 29 C43.84828377 29.09038099 39.08086796 28.84681133 34 28 C33.67 28.66 33.34 29.32 33 30 C34.32 29.67 35.64 29.34 37 29 C37.495 30.485 37.495 30.485 38 32 C38.66 32 39.32 32 40 32 C40 33.65 40 35.3 40 37 C39.505 35.02 39.505 35.02 39 33 C38.36191406 33.08378906 37.72382813 33.16757813 37.06640625 33.25390625 C36.24011719 33.35574219 35.41382813 33.45757812 34.5625 33.5625 C33.73878906 33.66691406 32.91507813 33.77132812 32.06640625 33.87890625 C31.04353516 33.93884766 31.04353516 33.93884766 30 34 C29.67 33.67 29.34 33.34 29 33 C29.33 33.99 29.66 34.98 30 36 C30.03954234 38.33299825 30.04401732 40.66708189 30 43 C28.68 42.67 27.36 42.34 26 42 C26.66 41.67 27.32 41.34 28 41 C27.505 39.02 27.505 39.02 27 37 C26.67 37.99 26.34 38.98 26 40 C23.6875 40.625 23.6875 40.625 21 41 C20.01 40.34 19.02 39.68 18 39 C18.66 38.34 19.32 37.68 20 37 C19.34 36.67 18.68 36.34 18 36 C17.67 36.99 17.34 37.98 17 39 C16.34 39 15.68 39 15 39 C15 38.01 15 37.02 15 36 C15.66 36 16.32 36 17 36 C15.85781803 32.13415332 14.8281145 28.93688813 12 26 C10.01954441 25.33820153 10.01954441 25.33820153 8 25 C7.01 24.34 6.02 23.68 5 23 C5.53725895 19.62294375 6.11064623 16.303314 7 13 C6.34 14.32 5.68 15.64 5 17 C4.34 17 3.68 17 3 17 C3 15.68 3 14.36 3 13 C2.34 13 1.68 13 1 13 C1 14.98 1 16.96 1 19 C0.34 19 -0.32 19 -1 19 C-1 18.34 -1 17.68 -1 17 C-2.7763932 15.9254644 -2.7763932 15.9254644 -4 16 C-4.99 16 -5.98 16 -7 16 C-7 16.66 -7 17.32 -7 18 C-7.99 18 -8.98 18 -10 18 C-10 19.65 -10 21.3 -10 23 C-12 21 -12 21 -12.0390625 18.75 C-11.15312136 12.86601355 -7.46491118 0 0 0 Z M2 19 C2.66 19.33 3.32 19.66 4 20 C4 21.65 4 23.3 4 25 C5.32 25 6.64 25 8 25 C8 26.65 8 28.3 8 30 C7.34 29.67 6.68 29.34 6 29 C5.67 32.96 5.34 36.92 5 41 C2 40 2 40 0.8125 38.125 C0 36 0 36 0 33 C-0.99 32.67 -1.98 32.34 -3 32 C-3.495 31.319375 -3.99 30.63875 -4.5 29.9375 C-4.995 29.298125 -5.49 28.65875 -6 28 C-6.99 28 -7.98 28 -9 28 C-8.67 27.01 -8.34 26.02 -8 25 C-5.5625 25.75 -5.5625 25.75 -3 27 C-2.1875 29.125 -2.1875 29.125 -2 31 C-1.34 31 -0.68 31 0 31 C0.66 27.04 1.32 23.08 2 19 Z " fill="#1B1C16" transform="translate(154,103)"/>
<path d="M0 0 C0.99 0.33 1.98 0.66 3 1 C2.01 1.495 2.01 1.495 1 2 C1 2.66 1 3.32 1 4 C0.443125 4.226875 -0.11375 4.45375 -0.6875 4.6875 C-5.42975541 7.37905037 -8.43100349 11.26763801 -11 16 C-8.36 16.66 -5.72 17.32 -3 18 C-2.85731366 25.95575409 -3.28208675 33.76620042 -4 41.6875 C-4.14308594 43.33008789 -4.14308594 43.33008789 -4.2890625 45.00585938 C-4.52182365 47.67097457 -4.7588633 50.33563186 -5 53 C-5.66 53 -6.32 53 -7 53 C-7.01458252 52.39639648 -7.02916504 51.79279297 -7.04418945 51.17089844 C-7.34423553 40.04692861 -7.67939605 29.68368228 -11 19 C-11.33 24.61 -11.66 30.22 -12 36 C-12.33 36 -12.66 36 -13 36 C-13.33 33.69 -13.66 31.38 -14 29 C-15.65 29.33 -17.3 29.66 -19 30 C-19.33 30.99 -19.66 31.98 -20 33 C-19.34 33 -18.68 33 -18 33 C-18.33 34.32 -18.66 35.64 -19 37 C-21.64 37 -24.28 37 -27 37 C-27 34.36 -27 31.72 -27 29 C-26.01 29 -25.02 29 -24 29 C-23.67 26.36 -23.34 23.72 -23 21 C-24.98 20.34 -26.96 19.68 -29 19 C-29 18.34 -29 17.68 -29 17 C-28.28972656 17.15597656 -27.57945312 17.31195313 -26.84765625 17.47265625 C-25.92855469 17.66730469 -25.00945312 17.86195313 -24.0625 18.0625 C-23.14597656 18.25972656 -22.22945312 18.45695312 -21.28515625 18.66015625 C-20.53105469 18.77230469 -19.77695313 18.88445312 -19 19 C-18.67 18.67 -18.34 18.34 -18 18 C-18.66 18 -19.32 18 -20 18 C-20 17.34 -20 16.68 -20 16 C-19.34 16 -18.68 16 -18 16 C-18 15.34 -18 14.68 -18 14 C-18.99 13.67 -19.98 13.34 -21 13 C-20.01 13 -19.02 13 -18 13 C-18 12.34 -18 11.68 -18 11 C-17.34 10.67 -16.68 10.34 -16 10 C-15.690625 9.34 -15.38125 8.68 -15.0625 8 C-14 6 -14 6 -11 5 C-12.32 4.34 -13.64 3.68 -15 3 C-14 2 -14 2 -10.83984375 1.90234375 C-8.90818359 1.91974609 -8.90818359 1.91974609 -6.9375 1.9375 C-5.64714844 1.94652344 -4.35679687 1.95554688 -3.02734375 1.96484375 C-2.02832031 1.97644531 -1.02929688 1.98804688 0 2 C0 1.34 0 0.68 0 0 Z " fill="#1F2116" transform="translate(211,131)"/>
<path d="M0 0 C0.33 0 0.66 0 1 0 C1 5.28 1 10.56 1 16 C0.67 16 0.34 16 0 16 C0 13.36 0 10.72 0 8 C-1.98 8.99 -1.98 8.99 -4 10 C-3.814375 11.258125 -3.62875 12.51625 -3.4375 13.8125 C-2.99267239 16.82744268 -3.00156154 18.00468461 -4 21 C-4.66 21 -5.32 21 -6 21 C-6.33 20.34 -6.66 19.68 -7 19 C-7 19.66 -7 20.32 -7 21 C-6.01 21.66 -5.02 22.32 -4 23 C-6.31 23 -8.62 23 -11 23 C-11.33 23.99 -11.66 24.98 -12 26 C-9.50307421 28.49692579 -5.61994328 28.29012232 -2.3125 28.5625 C-0.559375 28.706875 1.19375 28.85125 3 29 C3 35.27 3 41.54 3 48 C2.67 48 2.34 48 2 48 C1.67 43.05 1.34 38.1 1 33 C-0.98 33.495 -0.98 33.495 -3 34 C-3 33.34 -3 32.68 -3 32 C-3.969375 32.020625 -4.93875 32.04125 -5.9375 32.0625 C-9 32 -9 32 -10 31 C-10.268125 32.258125 -10.53625 33.51625 -10.8125 34.8125 C-11.64533242 38.21521531 -12.54388957 39.54388957 -15 42 C-15.36141955 44.32914823 -15.69699525 46.66253478 -16 49 C-16.99 49.495 -16.99 49.495 -18 50 C-19.27511107 47.44977787 -19.09754114 45.68741052 -19.0625 42.8359375 C-19.05476562 41.79566406 -19.04703125 40.75539062 -19.0390625 39.68359375 C-19.01329751 37.5012988 -18.98726185 35.31900703 -18.9609375 33.13671875 C-18.9179644 27.31386339 -19.10788771 21.75691213 -20 16 C-18.02 16 -16.04 16 -14 16 C-13.67 14.68 -13.34 13.36 -13 12 C-12.67 12.99 -12.34 13.98 -12 15 C-11.34 13.68 -10.68 12.36 -10 11 C-7 13 -7 13 -6 16 C-6.33 13.36 -6.66 10.72 -7 8 C-6.030625 7.608125 -5.06125 7.21625 -4.0625 6.8125 C-0.77823609 5.32405113 -0.77823609 5.32405113 -0.125 2.3125 C-0.08375 1.549375 -0.0425 0.78625 0 0 Z " fill="#161716" transform="translate(251,128)"/>
<path d="M0 0 C0.33 0 0.66 0 1 0 C1.32120156 4.60388896 0.99179956 7.38920743 -2 11 C-4.6875 11.8125 -4.6875 11.8125 -7 12 C-7.33 13.32 -7.66 14.64 -8 16 C-8.99 15.67 -9.98 15.34 -11 15 C-10.28436734 17.0162233 -10.28436734 17.0162233 -9 19 C-6.94999129 19.80528889 -6.94999129 19.80528889 -5 20 C-4.67 21.65 -4.34 23.3 -4 25 C-3.34 23.35 -2.68 21.7 -2 20 C-1.67 20 -1.34 20 -1 20 C-0.67 21.65 -0.34 23.3 0 25 C0.33 22.03 0.66 19.06 1 16 C1.33 16 1.66 16 2 16 C2.10957031 16.77085938 2.21914062 17.54171875 2.33203125 18.3359375 C2.49058594 19.33882812 2.64914063 20.34171875 2.8125 21.375 C2.96332031 22.37273437 3.11414063 23.37046875 3.26953125 24.3984375 C3.78772298 27.3287364 3.78772298 27.3287364 7 29 C7 29.66 7 30.32 7 31 C7.99 31.33 8.98 31.66 10 32 C11.6875 34.5625 11.6875 34.5625 13 37 C10 37 10 37 8.61328125 35.6875 C6.80664062 33.34375 6.80664062 33.34375 5 31 C4.01 31.33 3.02 31.66 2 32 C1.01 32 0.02 32 -1 32 C-1.33 31.01 -1.66 30.02 -2 29 C-2 29.66 -2 30.32 -2 31 C-5.46153846 34 -5.46153846 34 -8 34 C-8.33 34.66 -8.66 35.32 -9 36 C-12.465 32.535 -12.465 32.535 -16 29 C-15.34 28.34 -14.68 27.68 -14 27 C-14.32326553 23.40320934 -14.32326553 23.40320934 -15 20 C-15.99 20 -16.98 20 -18 20 C-18 19.34 -18 18.68 -18 18 C-16.35 17.34 -14.7 16.68 -13 16 C-13.99 15.34 -14.98 14.68 -16 14 C-16 13.34 -16 12.68 -16 12 C-12.7 11.67 -9.4 11.34 -6 11 C-6 10.01 -6 9.02 -6 8 C-5.01 8 -4.02 8 -3 8 C-2.67 6.68 -2.34 5.36 -2 4 C-1.34 4 -0.68 4 0 4 C0 2.68 0 1.36 0 0 Z " fill="#1B1B19" transform="translate(205,80)"/>
<path d="M0 0 C2.5 1.1875 2.5 1.1875 5 3 C5.3125 5.6875 5.3125 5.6875 5 8 C4.67 6.68 4.34 5.36 4 4 C3.34 4 2.68 4 2 4 C2.34227572 6.97065509 2.34227572 6.97065509 3 10 C3.66 10.33 4.32 10.66 5 11 C2.525 10.505 2.525 10.505 0 10 C-0.99 11.98 -1.98 13.96 -3 16 C-2.34 16 -1.68 16 -1 16 C-0.67 16.99 -0.34 17.98 0 19 C1.29355827 20.37195574 2.62298702 21.71182656 4 23 C3.01 23.33 2.02 23.66 1 24 C0.67 24.33 0.34 24.66 0 25 C-1.74765452 25.09969841 -3.4995103 25.12968045 -5.25 25.125 C-6.20390625 25.12757812 -7.1578125 25.13015625 -8.140625 25.1328125 C-10.86463928 25.00628725 -13.34675009 24.61005381 -16 24 C-14.68 23.67 -13.36 23.34 -12 23 C-12 22.34 -12 21.68 -12 21 C-13.32 20.34 -14.64 19.68 -16 19 C-11.545 19.99 -11.545 19.99 -7 21 C-7 21.66 -7 22.32 -7 23 C-5.35 23 -3.7 23 -2 23 C-2 22.01 -2 21.02 -2 20 C-2.99 19.67 -3.98 19.34 -5 19 C-4.34 19 -3.68 19 -3 19 C-4.36323743 16.9600281 -4.36323743 16.9600281 -6 15 C-6.66 15 -7.32 15 -8 15 C-8 14.01 -8 13.02 -8 12 C-9.32 11.67 -10.64 11.34 -12 11 C-10.68 11 -9.36 11 -8 11 C-7.67 9.68 -7.34 8.36 -7 7 C-4.69 7 -2.38 7 0 7 C-2.97 6.505 -2.97 6.505 -6 6 C-6 5.34 -6 4.68 -6 4 C-4.02 3.67 -2.04 3.34 0 3 C0 2.01 0 1.02 0 0 Z " fill="#1D2019" transform="translate(248,45)"/>
<path d="M0 0 C2.31 0 4.62 0 7 0 C6.34 5.94 5.68 11.88 5 18 C4.67 17.34 4.34 16.68 4 16 C3.34 16 2.68 16 2 16 C2.165 16.86625 2.33 17.7325 2.5 18.625 C2.97218548 21.81225199 3.07655118 24.78485027 3 28 C2.01 28.33 1.02 28.66 0 29 C-0.33 29.99 -0.66 30.98 -1 32 C-2.0326802 29.21176345 -2.04509293 28.1322726 -1.0625 25.25 C-0.711875 24.5075 -0.36125 23.765 0 23 C-0.66 22.67 -1.32 22.34 -2 22 C-1.67 20.68 -1.34 19.36 -1 18 C-0.34 18 0.32 18 1 18 C0.67 17.34 0.34 16.68 0 16 C-0.07181821 13.28239892 -0.09299506 10.59140612 -0.0625 7.875 C-0.05798828 7.12089844 -0.05347656 6.36679687 -0.04882812 5.58984375 C-0.03703499 3.72652873 -0.01909942 1.86325445 0 0 Z " fill="#171818" transform="translate(274,256)"/>
<path d="M0 0 C0.99 0.33 1.98 0.66 3 1 C2.01 1.495 2.01 1.495 1 2 C1 2.66 1 3.32 1 4 C0.443125 4.226875 -0.11375 4.45375 -0.6875 4.6875 C-3.19672664 5.969939 -3.19672664 5.969939 -5.4375 8.5 C-7.95063538 10.9518394 -9.69600416 11.96160131 -13 13 C-12.67 13.66 -12.34 14.32 -12 15 C-15.06117568 17.62386487 -15.73173127 18 -20 18 C-20 17.34 -20 16.68 -20 16 C-19.34 16 -18.68 16 -18 16 C-18 15.34 -18 14.68 -18 14 C-18.99 13.67 -19.98 13.34 -21 13 C-20.01 13 -19.02 13 -18 13 C-18 12.34 -18 11.68 -18 11 C-17.34 10.67 -16.68 10.34 -16 10 C-15.690625 9.34 -15.38125 8.68 -15.0625 8 C-14 6 -14 6 -11 5 C-12.32 4.34 -13.64 3.68 -15 3 C-14 2 -14 2 -10.83984375 1.90234375 C-8.90818359 1.91974609 -8.90818359 1.91974609 -6.9375 1.9375 C-5.64714844 1.94652344 -4.35679687 1.95554688 -3.02734375 1.96484375 C-2.02832031 1.97644531 -1.02929688 1.98804688 0 2 C0 1.34 0 0.68 0 0 Z " fill="#161811" transform="translate(211,131)"/>
<path d="M0 0 C0.66 0.33 1.32 0.66 2 1 C2 2.32 2 3.64 2 5 C5.13349732 6.04449911 5.98968256 5.93423645 9 5 C9 6.65 9 8.3 9 10 C9.99 10.33 10.98 10.66 12 11 C11.67 12.32 11.34 13.64 11 15 C10.34 15 9.68 15 9 15 C9 15.66 9 16.32 9 17 C6.625 16.6875 6.625 16.6875 4 16 C3.34 15.01 2.68 14.02 2 13 C2.99 13 3.98 13 5 13 C5 12.34 5 11.68 5 11 C3.35 11.66 1.7 12.32 0 13 C0 12.01 0 11.02 0 10 C-0.2475 10.969375 -0.495 11.93875 -0.75 12.9375 C-1.1625 13.948125 -1.575 14.95875 -2 16 C-4.125 16.875 -4.125 16.875 -6 17 C-6 15.68 -6 14.36 -6 13 C-5.34 13 -4.68 13 -4 13 C-3.67 11.35 -3.34 9.7 -3 8 C-2.34 8 -1.68 8 -1 8 C-0.67 5.36 -0.34 2.72 0 0 Z " fill="#20201C" transform="translate(265,83)"/>
<path d="M0 0 C0.33 0 0.66 0 1 0 C1 2.64 1 5.28 1 8 C1.928125 8.144375 2.85625 8.28875 3.8125 8.4375 C7 9 7 9 10 10 C8.504383 14.48685099 7.18086932 15.83600473 2.98828125 18.1796875 C-0.02913491 19.42459397 -2.79326175 19.26177455 -6 19 C-5.67 16.36 -5.34 13.72 -5 11 C-3.68 10.67 -2.36 10.34 -1 10 C-0.67 6.7 -0.34 3.4 0 0 Z M4 10 C4 10.66 4 11.32 4 12 C4.99 11.67 5.98 11.34 7 11 C6.01 10.67 5.02 10.34 4 10 Z " fill="#1F201B" transform="translate(142,200)"/>
<path d="M0 0 C0.66 0 1.32 0 2 0 C0.80023986 3.08509749 -0.48204961 6.05897112 -2 9 C-2.37125 9.7425 -2.7425 10.485 -3.125 11.25 C-3.41375 11.8275 -3.7025 12.405 -4 13 C-4.66 13 -5.32 13 -6 13 C-6 13.66 -6 14.32 -6 15 C-8.5614657 17.29648649 -9.47967572 18 -13 18 C-13.33 16.68 -13.66 15.36 -14 14 C-14.66 14 -15.32 14 -16 14 C-15.67 12.02 -15.34 10.04 -15 8 C-14.34 8 -13.68 8 -13 8 C-13 6.68 -13 5.36 -13 4 C-11.68 4.66 -10.36 5.32 -9 6 C-9 6.66 -9 7.32 -9 8 C-9.66 8 -10.32 8 -11 8 C-11 8.66 -11 9.32 -11 10 C-10.34 10 -9.68 10 -9 10 C-8.67 10.66 -8.34 11.32 -8 12 C-7.34 12 -6.68 12 -6 12 C-6.33 9.69 -6.66 7.38 -7 5 C-2.25 2 -2.25 2 0 2 C0 1.34 0 0.68 0 0 Z " fill="#1F211E" transform="translate(230,318)"/>
<path d="M0 0 C2.97 0.33 5.94 0.66 9 1 C9.99 3.64 10.98 6.28 12 9 C-6 9 -6 9 -12 7 C-12 5.68 -12 4.36 -12 3 C-12.66 3 -13.32 3 -14 3 C-14 2.34 -14 1.68 -14 1 C-11.67426248 1.53670866 -9.49774158 2.18263943 -7.25 3 C-4.58451034 3.82015066 -2.42564879 4.22569529 0.3125 4.5 C1.529375 4.665 2.74625 4.83 4 5 C4.33 5.66 4.66 6.32 5 7 C6.32 6.67 7.64 6.34 9 6 C8.01 6 7.02 6 6 6 C4.64631404 4.68733482 3.31200404 3.35432675 2 2 C1.34 2 0.68 2 0 2 C0 1.34 0 0.68 0 0 Z " fill="#292B23" transform="translate(237,40)"/>
<path d="M0 0 C2 1 2 1 2.8515625 2.94921875 C5.83109323 13.49796138 5.28292116 24.13002394 5 35 C3.68 34.67 2.36 34.34 1 34 C1 29.05 1 24.1 1 19 C0.67 19 0.34 19 0 19 C0 12.73 0 6.46 0 0 Z " fill="#19191C" transform="translate(199,149)"/>
<path d="M0 0 C0 0.66 0 1.32 0 2 C-0.66 2 -1.32 2 -2 2 C-2 3.65 -2 5.3 -2 7 C-1.34 7.33 -0.68 7.66 0 8 C-0.5859375 14.15234375 -0.5859375 14.15234375 -1 16 C-2.33333333 16.66666667 -3.66666667 17.33333333 -5 18 C-5.33 16.35 -5.66 14.7 -6 13 C-7.98 13.99 -7.98 13.99 -10 15 C-10 12.03 -10 9.06 -10 6 C-11.65 5.67 -13.3 5.34 -15 5 C-14 3 -14 3 -10.9375 1.875 C-9.4834375 1.441875 -9.4834375 1.441875 -8 1 C-8 1.66 -8 2.32 -8 3 C-7.236875 2.505 -6.47375 2.01 -5.6875 1.5 C-3 0 -3 0 0 0 Z " fill="#252821" transform="translate(253,289)"/>
<path d="M0 0 C1.32 0 2.64 0 4 0 C4 0.99 4 1.98 4 3 C5.32 3 6.64 3 8 3 C8 2.34 8 1.68 8 1 C8.99 1 9.98 1 11 1 C9.75453595 4.73639216 8.36595047 5.18756513 5 7 C6.65 7 8.3 7 10 7 C10.8723412 9.99480917 11.10829766 12.63575911 11.0625 15.75 C11.05347656 16.54921875 11.04445313 17.3484375 11.03515625 18.171875 C11.02355469 18.77515625 11.01195312 19.3784375 11 20 C10.34 20.33 9.68 20.66 9 21 C9 18.36 9 15.72 9 13 C7.72125 12.79375 6.4425 12.5875 5.125 12.375 C4.40570313 12.25898438 3.68640625 12.14296875 2.9453125 12.0234375 C2.30335938 12.01570312 1.66140625 12.00796875 1 12 C0.34 12.66 -0.32 13.32 -1 14 C-1.25 11.75 -1.25 11.75 -1 9 C1 6.6875 1 6.6875 3 5 C2.01 5 1.02 5 0 5 C0 3.35 0 1.7 0 0 Z " fill="#1D1F17" transform="translate(256,147)"/>
<path d="M0 0 C6.90352555 -0.51137226 11.74827614 1.13035626 18 4 C16.63016497 7.16115776 16.0109362 7.9927092 13 10 C9.8125 10.125 9.8125 10.125 7 10 C7 7.36 7 4.72 7 2 C4.69 2 2.38 2 0 2 C0 1.34 0 0.68 0 0 Z " fill="#20211E" transform="translate(213,150)"/>
<path d="M0 0 C0.33 0 0.66 0 1 0 C1.10957031 0.77085938 1.21914062 1.54171875 1.33203125 2.3359375 C1.49058594 3.33882813 1.64914063 4.34171875 1.8125 5.375 C1.96332031 6.37273437 2.11414063 7.37046875 2.26953125 8.3984375 C2.78772298 11.3287364 2.78772298 11.3287364 6 13 C6 13.66 6 14.32 6 15 C6.99 15.33 7.98 15.66 9 16 C10.6875 18.5625 10.6875 18.5625 12 21 C9 21 9 21 7.61328125 19.6875 C6.40885417 18.125 5.20442708 16.5625 4 15 C3.01 15.33 2.02 15.66 1 16 C0.01 16 -0.98 16 -2 16 C-2.33 15.01 -2.66 14.02 -3 13 C-3 13.66 -3 14.32 -3 15 C-3.66 15 -4.32 15 -5 15 C-5.19622241 10.78121808 -4.80230168 7.82989106 -3 4 C-2.67 4 -2.34 4 -2 4 C-1.67 5.65 -1.34 7.3 -1 9 C-0.67 6.03 -0.34 3.06 0 0 Z " fill="#1E2018" transform="translate(206,96)"/>
<path d="M0 0 C-0.04125 1.11375 -0.0825 2.2275 -0.125 3.375 C-0.41121859 7.04366025 -0.41121859 7.04366025 2 9 C1.01 11.31 0.02 13.62 -1 16 C-1.33 15.01 -1.66 14.02 -2 13 C-2.99 13.33 -3.98 13.66 -5 14 C-5.12375 13.360625 -5.2475 12.72125 -5.375 12.0625 C-5.58125 11.381875 -5.7875 10.70125 -6 10 C-6.66 9.67 -7.32 9.34 -8 9 C-7.01 8.34 -6.02 7.68 -5 7 C-5.99 6.01 -6.98 5.02 -8 4 C-7.67 3.01 -7.34 2.02 -7 1 C-4.52260646 0.09162237 -2.66420516 0 0 0 Z " fill="#22241B" transform="translate(208,56)"/>
<path d="M0 0 C1.65 0 3.3 0 5 0 C6.07310858 3.27185553 5.89263102 5.42947592 5.0625 8.75 C4.86785156 9.54921875 4.67320312 10.3484375 4.47265625 11.171875 C4.23869141 12.07679687 4.23869141 12.07679687 4 13 C3.34 13 2.68 13 2 13 C2 13.99 2 14.98 2 16 C1.01 16 0.02 16 -1 16 C-1.94254554 10.53323588 -2.12664821 7.25407205 0 2 C0 1.34 0 0.68 0 0 Z " fill="#0D0E0B" transform="translate(138,112)"/>
<path d="M0 0 C5.75 0.875 5.75 0.875 8 2 C8 3.65 8 5.3 8 7 C9.32 7.66 10.64 8.32 12 9 C10.68 9 9.36 9 8 9 C8 11.31 8 13.62 8 16 C6.68 16 5.36 16 4 16 C3.01 18.475 3.01 18.475 2 21 C1.67 21 1.34 21 1 21 C1.56820748 15.54520815 2.94637945 11.08940744 5 6 C3.68 6 2.36 6 1 6 C0.67 4.02 0.34 2.04 0 0 Z " fill="#202218" transform="translate(176,64)"/>
<path d="M0 0 C2.475 0.99 2.475 0.99 5 2 C5 2.99 5 3.98 5 5 C4.01 5 3.02 5 2 5 C2 6.32 2 7.64 2 9 C2.99 9 3.98 9 5 9 C5 9.66 5 10.32 5 11 C4.01 11 3.02 11 2 11 C2 11.66 2 12.32 2 13 C2.99 13.33 3.98 13.66 5 14 C0.545 14.495 0.545 14.495 -4 15 C-3.34 14.67 -2.68 14.34 -2 14 C-3.37485532 12.45833358 -3.37485532 12.45833358 -5 11 C-5.66 11 -6.32 11 -7 11 C-7 9.68 -7 8.36 -7 7 C-1.25 5.875 -1.25 5.875 1 7 C0.67 4.69 0.34 2.38 0 0 Z " fill="#1C1E1B" transform="translate(187,257)"/>
<path d="M0 0 C0 2.31 0 4.62 0 7 C-0.99 7.495 -0.99 7.495 -2 8 C-1.97679687 8.73605469 -1.95359375 9.47210938 -1.9296875 10.23046875 C-1.91164063 11.20628906 -1.89359375 12.18210938 -1.875 13.1875 C-1.85179687 14.15042969 -1.82859375 15.11335937 -1.8046875 16.10546875 C-2.0086456 19.12812778 -2.73125368 21.26769985 -4 24 C-4.66 23.67 -5.32 23.34 -6 23 C-5.67 17.72 -5.34 12.44 -5 7 C-5.66 7 -6.32 7 -7 7 C-6.39816251 4.97954558 -5.72693904 2.97888961 -5 1 C-3 0 -3 0 0 0 Z " fill="#1D1E18" transform="translate(287,137)"/>
<path d="M0 0 C5.28 0.66 10.56 1.32 16 2 C16 8.27 16 14.54 16 21 C15.67 21 15.34 21 15 21 C14.67 16.05 14.34 11.1 14 6 C12.68 6.33 11.36 6.66 10 7 C10 6.34 10 5.68 10 5 C8.5459375 5.0309375 8.5459375 5.0309375 7.0625 5.0625 C4 5 4 5 3 4 C2.67 5.98 2.34 7.96 2 10 C1.67 10 1.34 10 1 10 C0.67 6.7 0.34 3.4 0 0 Z " fill="#262B15" transform="translate(238,155)"/>
<path d="M0 0 C0.66 0.33 1.32 0.66 2 1 C1.50628906 1.75925781 1.01257813 2.51851563 0.50390625 3.30078125 C-0.13675781 4.29464844 -0.77742187 5.28851563 -1.4375 6.3125 C-2.07558594 7.29863281 -2.71367187 8.28476563 -3.37109375 9.30078125 C-5.10615606 11.95276993 -5.10615606 11.95276993 -6 15 C-6.66 15 -7.32 15 -8 15 C-8.33 15.99 -8.66 16.98 -9 18 C-9.66 18.33 -10.32 18.66 -11 19 C-10.67 19.66 -10.34 20.32 -10 21 C-11.98 21.66 -13.96 22.32 -16 23 C-15.62403791 20.21788056 -15.32681541 18.4120716 -13.5625 16.1875 C-12 15 -12 15 -10 15 C-9.7525 14.278125 -9.505 13.55625 -9.25 12.8125 C-7.87301736 9.71428907 -6.19160333 7.57835686 -4 5 C-3.2575 4.071875 -2.515 3.14375 -1.75 2.1875 C-1.1725 1.465625 -0.595 0.74375 0 0 Z " fill="#1D1F14" transform="translate(176,71)"/>
<path d="M0 0 C0.66 0.33 1.32 0.66 2 1 C2 1.99 2 2.98 2 4 C1.34 4 0.68 4 0 4 C-0.93423645 7.01031744 -1.04449911 7.86650268 0 11 C0.375 13.4375 0.375 13.4375 0 16 C-4.21621622 20 -4.21621622 20 -6 20 C-5.85357263 12.01305257 -5.05210345 6.33843238 0 0 Z M-8 20 C-7.01 20.495 -7.01 20.495 -6 21 C-6.66 21.66 -7.32 22.32 -8 23 C-8 22.01 -8 21.02 -8 20 Z " fill="#1D1F1C" transform="translate(231,288)"/>
<path d="M0 0 C3.1875 -0.5 3.1875 -0.5 7 0 C10.52864127 3.66838944 12 6.92619994 12 12 C11.34 12 10.68 12 10 12 C9.525625 11.030625 9.05125 10.06125 8.5625 9.0625 C7.29806053 6.19522563 7.29806053 6.19522563 6 5 C5.67 5.66 5.34 6.32 5 7 C5.66 7 6.32 7 7 7 C6.34 8.65 5.68 10.3 5 12 C4.01 11.67 3.02 11.34 2 11 C1 5.25 1 5.25 1 3 C0.67 2.01 0.34 1.02 0 0 Z " fill="#1E1E1B" transform="translate(271,64)"/>
<path d="M0 0 C0.99 0.33 1.98 0.66 3 1 C2.01 1.495 2.01 1.495 1 2 C1 2.66 1 3.32 1 4 C0.1646875 4.3403125 0.1646875 4.3403125 -0.6875 4.6875 C-3.22215457 5.98466965 -3.22215457 5.98466965 -5.5625 8.625 C-8 11 -8 11 -11 11 C-10 9 -10 9 -8 7 C-7.01 7 -6.02 7 -5 7 C-5 6.01 -5 5.02 -5 4 C-5.66 4 -6.32 4 -7 4 C-7 4.66 -7 5.32 -7 6 C-9.92879371 5.37240135 -12.36095629 4.41377341 -15 3 C-14 2 -14 2 -10.83984375 1.90234375 C-8.90818359 1.91974609 -8.90818359 1.91974609 -6.9375 1.9375 C-5.64714844 1.94652344 -4.35679687 1.95554688 -3.02734375 1.96484375 C-2.02832031 1.97644531 -1.02929688 1.98804688 0 2 C0 1.34 0 0.68 0 0 Z " fill="#212319" transform="translate(211,131)"/>
<path d="M0 0 C0.66 0 1.32 0 2 0 C2 0.66 2 1.32 2 2 C3.32 2.33 4.64 2.66 6 3 C6 4.32 6 5.64 6 7 C7.32 7.33 8.64 7.66 10 8 C10 8.66 10 9.32 10 10 C14.62 10.66 19.24 11.32 24 12 C20.425158 14.383228 19.69329571 14.0982941 15.625 13.3125 C11.52572972 12.47966672 8.43356657 11.46787597 5 9 C4.01 8.67 3.02 8.34 2 8 C2.66 6.68 3.32 5.36 4 4 C3.01 4 2.02 4 1 4 C0.67 2.68 0.34 1.36 0 0 Z " fill="#262818" transform="translate(162,114)"/>
<path d="M0 0 C0.33 0 0.66 0 1 0 C1.33 2.64 1.66 5.28 2 8 C2.33 5.69 2.66 3.38 3 1 C3.99 1 4.98 1 6 1 C6.08078641 3.12438339 6.13909141 5.2496323 6.1875 7.375 C6.22230469 8.55835937 6.25710937 9.74171875 6.29296875 10.9609375 C6.19628906 11.96382812 6.09960938 12.96671875 6 14 C5.01 14.66 4.02 15.32 3 16 C2.67 15.34 2.34 14.68 2 14 C1.34 14.66 0.68 15.32 0 16 C0 10.72 0 5.44 0 0 Z " fill="#0C0D0A" transform="translate(225,104)"/>
<path d="M0 0 C0.33 0.66 0.66 1.32 1 2 C2.32 1.34 3.64 0.68 5 0 C5.25 7.625 5.25 7.625 3 11 C1.02 10.34 -0.96 9.68 -3 9 C-2.34 7.35 -1.68 5.7 -1 4 C-2.32 4 -3.64 4 -5 4 C-4.67 3.01 -4.34 2.02 -4 1 C-3.01 1.33 -2.02 1.66 -1 2 C-0.67 1.34 -0.34 0.68 0 0 Z " fill="#1F211E" transform="translate(259,285)"/>
<path d="M0 0 C4.455 0.99 4.455 0.99 9 2 C9 2.66 9 3.32 9 4 C10.98 4 12.96 4 15 4 C15.33 2.68 15.66 1.36 16 0 C17.32 1.32 18.64 2.64 20 4 C19.01 4.33 18.02 4.66 17 5 C16.67 5.33 16.34 5.66 16 6 C14.25234548 6.09969841 12.5004897 6.12968045 10.75 6.125 C9.79609375 6.12757812 8.8421875 6.13015625 7.859375 6.1328125 C5.13536072 6.00628725 2.65324991 5.61005381 0 5 C1.32 4.67 2.64 4.34 4 4 C4 3.34 4 2.68 4 2 C2.68 1.34 1.36 0.68 0 0 Z " fill="#131610" transform="translate(232,64)"/>
<path d="M0 0 C0.33 0 0.66 0 1 0 C1.32120156 4.60388896 0.99179956 7.38920743 -2 11 C-4.6875 11.8125 -4.6875 11.8125 -7 12 C-7.33 13.32 -7.66 14.64 -8 16 C-8.99 15.34 -9.98 14.68 -11 14 C-11.99 14.33 -12.98 14.66 -14 15 C-14.66 14.67 -15.32 14.34 -16 14 C-16 13.34 -16 12.68 -16 12 C-12.7 11.67 -9.4 11.34 -6 11 C-6 10.01 -6 9.02 -6 8 C-5.01 8 -4.02 8 -3 8 C-2.67 6.68 -2.34 5.36 -2 4 C-1.34 4 -0.68 4 0 4 C0 2.68 0 1.36 0 0 Z " fill="#202313" transform="translate(205,80)"/>
<path d="M0 0 C0.33 0 0.66 0 1 0 C1 5.28 1 10.56 1 16 C0.67 16 0.34 16 0 16 C0 13.36 0 10.72 0 8 C-1.98 8.99 -1.98 8.99 -4 10 C-3.814375 11.258125 -3.62875 12.51625 -3.4375 13.8125 C-2.99267239 16.82744268 -3.00156154 18.00468461 -4 21 C-4.66 21 -5.32 21 -6 21 C-5.98839844 20.39671875 -5.97679687 19.7934375 -5.96484375 19.171875 C-5.95582031 18.37265625 -5.94679687 17.5734375 -5.9375 16.75 C-5.92589844 15.96109375 -5.91429687 15.1721875 -5.90234375 14.359375 C-5.99614694 12.09308998 -6.36758937 10.1711105 -7 8 C-6.030625 7.608125 -5.06125 7.21625 -4.0625 6.8125 C-0.77823609 5.32405113 -0.77823609 5.32405113 -0.125 2.3125 C-0.08375 1.549375 -0.0425 0.78625 0 0 Z " fill="#212217" transform="translate(251,128)"/>
<path d="M0 0 C1.32 1.32 2.64 2.64 4 4 C2.82421875 5.51953125 2.82421875 5.51953125 1 7 C-1.48046875 7.07421875 -1.48046875 7.07421875 -4.1875 6.6875 C-5.08855469 6.56761719 -5.98960937 6.44773437 -6.91796875 6.32421875 C-7.60503906 6.21722656 -8.29210937 6.11023438 -9 6 C-9.33 5.01 -9.66 4.02 -10 3 C-7.03 3 -4.06 3 -1 3 C-0.67 2.01 -0.34 1.02 0 0 Z " fill="#0A0B09" transform="translate(183,119)"/>
<path d="M0 0 C0.33 0.66 0.66 1.32 1 2 C-0.50957714 6.07585828 -2.02216494 9.76322276 -5 13 C-5.66 13 -6.32 13 -7 13 C-7 15.97 -7 18.94 -7 22 C-9 20 -9 20 -9.00390625 17.71484375 C-7.80643795 10.18033083 -5.15370764 5.58088661 0 0 Z " fill="#282C10" transform="translate(151,104)"/>
<path d="M0 0 C0.99 0.33 1.98 0.66 3 1 C2.01 3.64 1.02 6.28 0 9 C-0.33 8.34 -0.66 7.68 -1 7 C-2.65 7.33 -4.3 7.66 -6 8 C-6.33 6.02 -6.66 4.04 -7 2 C-5.824375 1.7834375 -5.824375 1.7834375 -4.625 1.5625 C-2.03578982 1.12201075 -2.03578982 1.12201075 0 0 Z " fill="#16180F" transform="translate(201,93)"/>
<path d="M0 0 C3.3 0.33 6.6 0.66 10 1 C10 1.66 10 2.32 10 3 C9.34 3 8.68 3 8 3 C8.495 3.598125 8.99 4.19625 9.5 4.8125 C11 7 11 7 11 10 C8 9 8 9 6.5625 7.5 C4.74806281 5.75814029 3.44440923 5.42144987 1 5 C1.33 3.68 1.66 2.36 2 1 C1.34 0.67 0.68 0.34 0 0 Z " fill="#22241F" transform="translate(208,49)"/>
<path d="M0 0 C0.99 0.33 1.98 0.66 3 1 C2.34 4.3 1.68 7.6 1 11 C-4 12 -4 12 -7 11 C-6.67 10.01 -6.34 9.02 -6 8 C-6 8.66 -6 9.32 -6 10 C-5.34 10 -4.68 10 -4 10 C-3.79503906 9.36191406 -3.59007812 8.72382813 -3.37890625 8.06640625 C-3.10949219 7.24011719 -2.84007812 6.41382813 -2.5625 5.5625 C-2.16224609 4.32693359 -2.16224609 4.32693359 -1.75390625 3.06640625 C-1 1 -1 1 0 0 Z " fill="#232522" transform="translate(215,340)"/>
<path d="M0 0 C0.33 0 0.66 0 1 0 C1 1.65 1 3.3 1 5 C1.99 5 2.98 5 4 5 C3.8125 7.375 3.8125 7.375 3 10 C0.4375 11.3125 0.4375 11.3125 -2 12 C-3.01911045 8.10885099 -3.16782969 6.39403493 -1.5625 2.625 C-1.046875 1.75875 -0.53125 0.8925 0 0 Z " fill="#20221F" transform="translate(215,300)"/>
<path d="M0 0 C1.32 0.66 2.64 1.32 4 2 C3.67 2.66 3.34 3.32 3 4 C2.34 4 1.68 4 1 4 C1 4.99 1 5.98 1 7 C1.66 7.33 2.32 7.66 3 8 C0.36 8.33 -2.28 8.66 -5 9 C-5 7.68 -5 6.36 -5 5 C-5.99 4.67 -6.98 4.34 -8 4 C-7.67 3.01 -7.34 2.02 -7 1 C-6.34 1.33 -5.68 1.66 -5 2 C-5.33 2.66 -5.66 3.32 -6 4 C-5.34 4 -4.68 4 -4 4 C-4 4.99 -4 5.98 -4 7 C-3.34 7 -2.68 7 -2 7 C-1.855625 6.401875 -1.71125 5.80375 -1.5625 5.1875 C-1.1127561 3.43849596 -0.57107659 1.71322977 0 0 Z " fill="#0A0A09" transform="translate(173,112)"/>
<path d="M0 0 C0.66 0 1.32 0 2 0 C2 1.32 2 2.64 2 4 C1.34 4 0.68 4 0 4 C0 2.68 0 1.36 0 0 Z M-2 4 C-1.34 4 -0.68 4 0 4 C0.33 5.98 0.66 7.96 1 10 C1.99 10 2.98 10 4 10 C3.67 11.32 3.34 12.64 3 14 C2.01 14 1.02 14 0 14 C-0.33 12.68 -0.66 11.36 -1 10 C-1.66 10 -2.32 10 -3 10 C-2.67 8.02 -2.34 6.04 -2 4 Z " fill="#252724" transform="translate(217,322)"/>
<path d="M0 0 C2.5 0.125 2.5 0.125 3.5 1.125 C4.49 0.795 5.48 0.465 6.5 0.125 C5.84 1.775 5.18 3.425 4.5 5.125 C2.19 5.455 -0.12 5.785 -2.5 6.125 C-2.88218767 4.46885343 -3.21395102 2.80042976 -3.5 1.125 C-2.5 0.125 -2.5 0.125 0 0 Z " fill="#1C1E1B" transform="translate(252.5,280.875)"/>
<path d="M0 0 C1.08683991 3.26051972 0.98760508 5.22978132 0.6875 8.625 C0.60886719 9.60726562 0.53023438 10.58953125 0.44921875 11.6015625 C0.22685547 12.78878906 0.22685547 12.78878906 0 14 C-0.99 14.495 -0.99 14.495 -2 15 C-1.67 12.03 -1.34 9.06 -1 6 C-1.66 6 -2.32 6 -3 6 C-3.33 6.99 -3.66 7.98 -4 9 C-4 6.69 -4 4.38 -4 2 C-3.01 2.495 -3.01 2.495 -2 3 C-1.34 2.01 -0.68 1.02 0 0 Z M-6 6 C-3.70986347 9.4352048 -3.82157027 10.985331 -4 15 C-5.85776765 11.86501708 -6.20140476 9.62528568 -6 6 Z " fill="#202119" transform="translate(287,105)"/>
<path d="M0 0 C0 0.66 0 1.32 0 2 C-0.66 2 -1.32 2 -2 2 C-2 3.65 -2 5.3 -2 7 C-1.34 7.33 -0.68 7.66 0 8 C-0.33 10.64 -0.66 13.28 -1 16 C-1.99 15.67 -2.98 15.34 -4 15 C-4.06058594 14.31292969 -4.12117187 13.62585938 -4.18359375 12.91796875 C-4.26738281 12.01691406 -4.35117188 11.11585938 -4.4375 10.1875 C-4.51871094 9.29417969 -4.59992188 8.40085937 -4.68359375 7.48046875 C-4.93489767 4.87256441 -4.93489767 4.87256441 -6 2 C-3 0 -3 0 0 0 Z " fill="#1C1E1B" transform="translate(253,289)"/>
<path d="M0 0 C0.99 0.33 1.98 0.66 3 1 C3.185625 2.11375 3.185625 2.11375 3.375 3.25 C3.87044737 5.95922873 3.87044737 5.95922873 5.0625 8.0625 C6 10 6 10 6 14 C5.67 14.66 5.34 15.32 5 16 C4.01 16 3.02 16 2 16 C2 12.04 2 8.08 2 4 C1.34 4 0.68 4 0 4 C0 2.68 0 1.36 0 0 Z " fill="#1C1F1A" transform="translate(161,242)"/>
<path d="M0 0 C0 0.99 0 1.98 0 3 C0.83333333 5.16666667 0.83333333 5.16666667 3 6 C2.21625 6.5775 1.4325 7.155 0.625 7.75 C-1.80047244 9.82897637 -2.85694417 11.09040333 -4 14 C-4.25 8.375 -4.25 8.375 -2 5 C-2.99 5 -3.98 5 -5 5 C-5 3.68 -5 2.36 -5 1 C-2 0 -2 0 0 0 Z " fill="#1C1F1B" transform="translate(258,290)"/>
<path d="M0 0 C0.33 0 0.66 0 1 0 C1.33 7.59 1.66 15.18 2 23 C1.34 23.33 0.68 23.66 0 24 C-1.27491216 21.45017567 -1.02596616 19.83534576 -0.87890625 16.9921875 C-0.83056641 16.00605469 -0.78222656 15.01992187 -0.73242188 14.00390625 C-0.67634766 12.97136719 -0.62027344 11.93882812 -0.5625 10.875 C-0.51029297 9.83472656 -0.45808594 8.79445312 -0.40429688 7.72265625 C-0.27439054 5.14814884 -0.13941748 2.57400704 0 0 Z " fill="#262E0F" transform="translate(233,154)"/>
<path d="M0 0 C0.33 0.66 0.66 1.32 1 2 C3.01669827 3.13350534 3.01669827 3.13350534 5 4 C3.625 6.5 3.625 6.5 2 9 C1.34 9 0.68 9 0 9 C0.33 8.01 0.66 7.02 1 6 C0.01 6.33 -0.98 6.66 -2 7 C-2.99 7.33 -3.98 7.66 -5 8 C-5 7.01 -5 6.02 -5 5 C-4.34 5 -3.68 5 -3 5 C-2.5359375 4.0409375 -2.5359375 4.0409375 -2.0625 3.0625 C-1 1 -1 1 0 0 Z " fill="#1C1E15" transform="translate(194,115)"/>
<path d="M0 0 C0.66 0.66 1.32 1.32 2 2 C1.67 2.66 1.34 3.32 1 4 C1.33 4.99 1.66 5.98 2 7 C1.0625 9.6875 1.0625 9.6875 0 12 C-3 10 -3 10 -3.6875 6.875 C-3.8421875 5.451875 -3.8421875 5.451875 -4 4 C-3.34 4 -2.68 4 -2 4 C-1.34 2.68 -0.68 1.36 0 0 Z M3 4 C3.66 4 4.32 4 5 4 C5 4.66 5 5.32 5 6 C4.01 5.67 3.02 5.34 2 5 C2.33 4.67 2.66 4.34 3 4 Z " fill="#1C1E1B" transform="translate(168,236)"/>
<path d="M0 0 C0.33 0 0.66 0 1 0 C0.67 5.28 0.34 10.56 0 16 C-1.32 16 -2.64 16 -4 16 C-4 13.36 -4 10.72 -4 8 C-3.01 8 -2.02 8 -1 8 C-0.67 5.36 -0.34 2.72 0 0 Z " fill="#1C1D20" transform="translate(188,152)"/>
<path d="M0 0 C1.45947705 0.06006078 2.91779272 0.1488689 4.375 0.25 C5.59316406 0.31960937 5.59316406 0.31960937 6.8359375 0.390625 C9 1 9 1 10.2890625 2.859375 C11 5 11 5 11 8 C10.34 8 9.68 8 9 8 C9 7.34 9 6.68 9 6 C8.01 6 7.02 6 6 6 C4.64631404 4.68733482 3.31200404 3.35432675 2 2 C1.34 2 0.68 2 0 2 C0 1.34 0 0.68 0 0 Z " fill="#252A13" transform="translate(237,40)"/>
<path d="M0 0 C0 0.66 0 1.32 0 2 C1.65 2.33 3.3 2.66 5 3 C5 3.66 5 4.32 5 5 C3.58297487 4.85769192 2.1663904 4.71099254 0.75 4.5625 C-0.43335938 4.44068359 -0.43335938 4.44068359 -1.640625 4.31640625 C-3.82364639 4.02365007 -5.8773182 3.57935581 -8 3 C-8 2.34 -8 1.68 -8 1 C-5.07175348 0.02391783 -3.04386724 -0.08226668 0 0 Z " fill="#222713" transform="translate(232,35)"/>
<path d="M0 0 C2.76276177 0.52268466 5.3260876 1.10869587 8 2 C8 1.34 8 0.68 8 0 C8.66 0 9.32 0 10 0 C9.67 1.98 9.34 3.96 9 6 C8.34 6 7.68 6 7 6 C7 6.66 7 7.32 7 8 C6.01 8 5.02 8 4 8 C4.33 6.68 4.66 5.36 5 4 C3.02 3.34 1.04 2.68 -1 2 C-0.67 1.34 -0.34 0.68 0 0 Z " fill="#12120F" transform="translate(255,85)"/>
<path d="M0 0 C7.68395543 -0.2137731 14.56340812 -0.01670288 22 2 C22 2.33 22 2.66 22 3 C17.05 3.33 12.1 3.66 7 4 C7 3.34 7 2.68 7 2 C4.69 1.67 2.38 1.34 0 1 C0 0.67 0 0.34 0 0 Z " fill="#272D10" transform="translate(224,69)"/>
<path d="M0 0 C0.33 0 0.66 0 1 0 C1 3.96 1 7.92 1 12 C1.99 12 2.98 12 4 12 C4 12.66 4 13.32 4 14 C2.35 14 0.7 14 -1 14 C-1.22331199 12.41870971 -1.42804644 10.83478911 -1.625 9.25 C-1.74101562 8.36828125 -1.85703125 7.4865625 -1.9765625 6.578125 C-2.00207817 3.77140122 -1.44843844 2.36615134 0 0 Z " fill="#181A16" transform="translate(162,246)"/>
<path d="M0 0 C1.48206495 0.254496 2.96068615 0.52911762 4.4375 0.8125 C5.67306641 1.03873047 5.67306641 1.03873047 6.93359375 1.26953125 C7.95646484 1.63111328 7.95646484 1.63111328 9 2 C9.33 2.99 9.66 3.98 10 5 C9.67 5.33 9.34 5.66 9 6 C8.76472227 8.34987262 8.58613583 10.70556039 8.4375 13.0625 C8.35371094 14.35285156 8.26992187 15.64320313 8.18359375 16.97265625 C8.12300781 17.97167969 8.06242188 18.97070312 8 20 C7.67 20 7.34 20 7 20 C7 14.72 7 9.44 7 4 C5.35 3.67 3.7 3.34 2 3 C1.34 2.67 0.68 2.34 0 2 C0 1.34 0 0.68 0 0 Z " fill="#292E12" transform="translate(182,148)"/>
<path d="M0 0 C3.125 0.375 3.125 0.375 6 1 C6 1.99 6 2.98 6 4 C5.01 4.33 4.02 4.66 3 5 C3 5.66 3 6.32 3 7 C2.01 7 1.02 7 0 7 C0 5.68 0 4.36 0 3 C-0.66 2.67 -1.32 2.34 -2 2 C-1.34 1.34 -0.68 0.68 0 0 Z " fill="#1F1F1F" transform="translate(163,93)"/>
<path d="M0 0 C0.66 0.33 1.32 0.66 2 1 C1.67 1.66 1.34 2.32 1 3 C1.33 3.99 1.66 4.98 2 6 C1.34 6 0.68 6 0 6 C0 6.66 0 7.32 0 8 C-1.32 8 -2.64 8 -4 8 C-4 7.34 -4 6.68 -4 6 C-4.66 6 -5.32 6 -6 6 C-5 3 -5 3 -2.5625 1.25 C-1.716875 0.8375 -0.87125 0.425 0 0 Z " fill="#262823" transform="translate(222,25)"/>
<path d="M0 0 C3.06393013 -0.25532751 4.63233212 -0.21861333 7.3125 1.375 C7.869375 1.91125 8.42625 2.4475 9 3 C9 3.66 9 4.32 9 5 C10.32 5.33 11.64 5.66 13 6 C13 7.65 13 9.3 13 11 C12.34 10.67 11.68 10.34 11 10 C11 9.01 11 8.02 11 7 C10.01 6.67 9.02 6.34 8 6 C8 5.34 8 4.68 8 4 C6.68 4 5.36 4 4 4 C4 3.34 4 2.68 4 2 C2.68 2 1.36 2 0 2 C0 1.34 0 0.68 0 0 Z " fill="#1B1D15" transform="translate(173,145)"/>
<path d="M0 0 C0.66 0 1.32 0 2 0 C1.45660208 4.56454251 0.20536179 7.9728176 -2 12 C-4 9 -4 9 -3.6875 6.4375 C-3 4 -3 4 -2 2 C-1.34 2 -0.68 2 0 2 C0 1.34 0 0.68 0 0 Z " fill="#080A06" transform="translate(179,70)"/>
<path d="M0 0 C-0.33 0.66 -0.66 1.32 -1 2 C-1.66 2 -2.32 2 -3 2 C-1.68 3.65 -0.36 5.3 1 7 C-1.9375 6.1875 -1.9375 6.1875 -5 5 C-5.33 4.01 -5.66 3.02 -6 2 C-5.34 2 -4.68 2 -4 2 C-4 1.34 -4 0.68 -4 0 C-6.31 0 -8.62 0 -11 0 C-11 -0.33 -11 -0.66 -11 -1 C-6.70700357 -2.26264601 -4.12168689 -1.62950412 0 0 Z " fill="#333B16" transform="translate(222,50)"/>
<path d="M0 0 C1.65 0 3.3 0 5 0 C5.38218767 1.65614657 5.71395102 3.32457024 6 5 C5 6 5 6 2.4375 6.0625 C1.2309375 6.0315625 1.2309375 6.0315625 0 6 C0 4.02 0 2.04 0 0 Z " fill="#353535" transform="translate(14,42)"/>
<path d="M0 0 C0.33 0 0.66 0 1 0 C1 6.27 1 12.54 1 19 C0.01 18.67 -0.98 18.34 -2 18 C-1.855625 17.071875 -1.71125 16.14375 -1.5625 15.1875 C-0.83635037 10.14594684 -0.4312193 5.07370796 0 0 Z " fill="#1B200D" transform="translate(197,149)"/>
<path d="M0 0 C0.99 0.33 1.98 0.66 3 1 C2.360625 1.78375 1.72125 2.5675 1.0625 3.375 C-0.98142313 5.79539281 -0.98142313 5.79539281 -2 8 C-0.68 7.34 0.64 6.68 2 6 C2 6.99 2 7.98 2 9 C0.33388095 9.042721 -1.33382885 9.04063832 -3 9 C-4 8 -4 8 -4.0625 5.4375 C-4.041875 4.633125 -4.02125 3.82875 -4 3 C-2.68 2.67 -1.36 2.34 0 2 C0 1.34 0 0.68 0 0 Z M3 4 C3.33 4.66 3.66 5.32 4 6 C3.34 5.67 2.68 5.34 2 5 C2.33 4.67 2.66 4.34 3 4 Z " fill="#0B0C06" transform="translate(163,104)"/>
<path d="M0 0 C1.99954746 -0.04254356 4.00041636 -0.04080783 6 0 C7 1 7 1 7.0625 4.0625 C7.041875 5.031875 7.02125 6.00125 7 7 C6.34 7 5.68 7 5 7 C4.525625 6.34 4.05125 5.68 3.5625 5 C3.046875 4.34 2.53125 3.68 2 3 C1.01 3 0.02 3 -1 3 C-0.67 2.01 -0.34 1.02 0 0 Z " fill="#282B24" transform="translate(264,21)"/>
<path d="M0 0 C0.99 0.495 0.99 0.495 2 1 C1.01 1.495 1.01 1.495 0 2 C0 1.34 0 0.68 0 0 Z M-1 2 C-0.67 2.66 -0.34 3.32 0 4 C0.99 4 1.98 4 3 4 C3 4.66 3 5.32 3 6 C4.32 6.33 5.64 6.66 7 7 C6.67 7.66 6.34 8.32 6 9 C5.01 9 4.02 9 3 9 C3 8.34 3 7.68 3 7 C2.01 7.33 1.02 7.66 0 8 C-0.66666667 6.66666667 -1.33333333 5.33333333 -2 4 C-1.67 3.34 -1.34 2.68 -1 2 Z M3 2 C3.99 2.33 4.98 2.66 6 3 C5.01 3.33 4.02 3.66 3 4 C3 3.34 3 2.68 3 2 Z " fill="#2F2F2D" transform="translate(210,184)"/>
<path d="M0 0 C0.66 0.66 1.32 1.32 2 2 C2.99 2 3.98 2 5 2 C5 3.32 5 4.64 5 6 C4.34 6 3.68 6 3 6 C2.67 6.66 2.34 7.32 2 8 C0.68 7.01 -0.64 6.02 -2 5 C-1.34 3.35 -0.68 1.7 0 0 Z " fill="#232522" transform="translate(234,360)"/>
<path d="M0 0 C2.3828125 0.0234375 2.3828125 0.0234375 5.125 0.375 C6.03507812 0.48585938 6.94515625 0.59671875 7.8828125 0.7109375 C8.93082031 0.85402344 8.93082031 0.85402344 10 1 C9.01 1.33 8.02 1.66 7 2 C7 2.66 7 3.32 7 4 C7.99 4 8.98 4 10 4 C10 4.66 10 5.32 10 6 C7.03824877 5.38722388 5.61941217 4.74627478 3 3 C1.34450469 2.61500109 -0.3222433 2.27206865 -2 2 C-1.34 1.34 -0.68 0.68 0 0 Z " fill="#13140D" transform="translate(253,79)"/>
<path d="M0 0 C0.33 0.66 0.66 1.32 1 2 C2.32 1.34 3.64 0.68 5 0 C5 1.98 5 3.96 5 6 C4.34 6 3.68 6 3 6 C3 5.34 3 4.68 3 4 C0.36 4 -2.28 4 -5 4 C-4.67 3.01 -4.34 2.02 -4 1 C-3.01 1.33 -2.02 1.66 -1 2 C-0.67 1.34 -0.34 0.68 0 0 Z " fill="#3F413E" transform="translate(259,285)"/>
<path d="M0 0 C2.64 0.66 5.28 1.32 8 2 C8 5.63 8 9.26 8 13 C7.67 13 7.34 13 7 13 C6.67 10.03 6.34 7.06 6 4 C4.35 4.33 2.7 4.66 1 5 C0.67 3.35 0.34 1.7 0 0 Z " fill="#2B2F1A" transform="translate(200,147)"/>
<path d="M0 0 C1.485 0.99 1.485 0.99 3 2 C3 2.66 3 3.32 3 4 C3.99 4 4.98 4 6 4 C5.88637738 5.4800841 5.75877092 6.95910074 5.625 8.4375 C5.55539063 9.26121094 5.48578125 10.08492187 5.4140625 10.93359375 C5.27742187 11.61550781 5.14078125 12.29742187 5 13 C4.01 13.495 4.01 13.495 3 14 C2.86722656 13.24074219 2.73445312 12.48148438 2.59765625 11.69921875 C2.42105469 10.70535156 2.24445313 9.71148437 2.0625 8.6875 C1.88847656 7.70136719 1.71445313 6.71523437 1.53515625 5.69921875 C1.04253153 2.91810787 1.04253153 2.91810787 0 0 Z " fill="#0E0F0A" transform="translate(181,133)"/>
<path d="M0 0 C0 0.66 0 1.32 0 2 C1.32 2.33 2.64 2.66 4 3 C3.67 3.99 3.34 4.98 3 6 C2.01 5.67 1.02 5.34 0 5 C-0.66 5.66 -1.32 6.32 -2 7 C-2 6.01 -2 5.02 -2 4 C-3.32 3.34 -4.64 2.68 -6 2 C-2.25 0 -2.25 0 0 0 Z " fill="#1A1A17" transform="translate(160,99)"/>
<path d="M0 0 C3 1 3 1 4.625 3.75 C5.81667631 6.56668945 6.55741679 8.99043417 7 12 C6.34 12 5.68 12 5 12 C4.54625 11.030625 4.0925 10.06125 3.625 9.0625 C2.34213779 5.92920418 2.34213779 5.92920418 0 5 C0 3.35 0 1.7 0 0 Z " fill="#242713" transform="translate(276,64)"/>
<path d="M0 0 C0.99 0 1.98 0 3 0 C2.34 5.94 1.68 11.88 1 18 C0.67 18 0.34 18 0 18 C-0.19484938 15.56288386 -0.38115178 13.12562602 -0.5625 10.6875 C-0.64661133 9.65206055 -0.64661133 9.65206055 -0.73242188 8.59570312 C-0.96581505 5.37487726 -1.03224218 3.09672655 0 0 Z " fill="#272B16" transform="translate(278,256)"/>
<path d="M0 0 C1.98 0 3.96 0 6 0 C6.33 1.32 6.66 2.64 7 4 C6.34 4 5.68 4 5 4 C4.67 5.65 4.34 7.3 4 9 C2.768606 6.53721199 2.92840804 4.7204945 3 2 C2.01 1.67 1.02 1.34 0 1 C0 0.67 0 0.34 0 0 Z " fill="#262825" transform="translate(217,274)"/>
<path d="M0 0 C0.99 0 1.98 0 3 0 C4.26026798 2.52053595 3.91874445 3.8542098 3.5625 6.625 C3.40974609 7.85089844 3.40974609 7.85089844 3.25390625 9.1015625 C3.17011719 9.72804687 3.08632812 10.35453125 3 11 C2.01 11 1.02 11 0 11 C0 7.37 0 3.74 0 0 Z " fill="#23241B" transform="translate(209,229)"/>
<path d="M0 0 C0 3.3 0 6.6 0 10 C-0.99 10.495 -0.99 10.495 -2 11 C-2 8.36 -2 5.72 -2 3 C-2.99 3 -3.98 3 -5 3 C-5 2.34 -5 1.68 -5 1 C-2 0 -2 0 0 0 Z " fill="#282B18" transform="translate(178,200)"/>
<path d="M0 0 C0.33 0 0.66 0 1 0 C1.33 2.64 1.66 5.28 2 8 C3.32 8.33 4.64 8.66 6 9 C5.67 9.99 5.34 10.98 5 12 C3.35 12.33 1.7 12.66 0 13 C0 8.71 0 4.42 0 0 Z " fill="#1F2019" transform="translate(168,176)"/>
<path d="M0 0 C1.258125 -0.04125 2.51625 -0.0825 3.8125 -0.125 C4.52019531 -0.14820313 5.22789062 -0.17140625 5.95703125 -0.1953125 C8 0 8 0 11 2 C10.01 2 9.02 2 8 2 C8 4.64 8 7.28 8 10 C7.67 10 7.34 10 7 10 C7 7.36 7 4.72 7 2 C4.69 2 2.38 2 0 2 C0 1.34 0 0.68 0 0 Z " fill="#343D0A" transform="translate(213,150)"/>
<path d="M0 0 C1.25541557 3.76624671 0.37061958 5.37188934 -1 9 C-0.34 9 0.32 9 1 9 C1 9.66 1 10.32 1 11 C0.34 11 -0.32 11 -1 11 C-1.33 11.66 -1.66 12.32 -2 13 C-2.66 13 -3.32 13 -4 13 C-4.63934602 7.88523181 -2.40533547 4.32745622 0 0 Z " fill="#2F331E" transform="translate(263,65)"/>
<path d="M0 0 C0.99 0.33 1.98 0.66 3 1 C3 1.66 3 2.32 3 3 C3.99 3.33 4.98 3.66 6 4 C7.6875 6.5625 7.6875 6.5625 9 9 C6 9 6 9 4.39453125 7.5390625 C3.61142578 6.59160156 3.61142578 6.59160156 2.8125 5.625 C2.28269531 4.99851562 1.75289062 4.37203125 1.20703125 3.7265625 C0 2 0 2 0 0 Z " fill="#2B2E1C" transform="translate(209,108)"/>
<path d="M0 0 C3 1 3 1 5 2 C5 2.66 5 3.32 5 4 C4.360625 4.103125 3.72125 4.20625 3.0625 4.3125 C2.381875 4.539375 1.70125 4.76625 1 5 C0.67 5.99 0.34 6.98 0 8 C0.66 8.33 1.32 8.66 2 9 C1.01 9 0.02 9 -1 9 C-1.09765625 2.84765625 -1.09765625 2.84765625 -1 1 C-0.67 0.67 -0.34 0.34 0 0 Z " fill="#0C0D0B" transform="translate(238,104)"/>
<path d="M0 0 C1.77049689 -0.05410687 3.54146849 -0.09284119 5.3125 -0.125 C6.29863281 -0.14820312 7.28476563 -0.17140625 8.30078125 -0.1953125 C11 0 11 0 14 2 C4.58997722 3.33257403 4.58997722 3.33257403 0 2 C0 1.34 0 0.68 0 0 Z " fill="#242522" transform="translate(218,67)"/>
<path d="M0 0 C0.66 0 1.32 0 2 0 C2 0.66 2 1.32 2 2 C2.66 2 3.32 2 4 2 C3.67 3.32 3.34 4.64 3 6 C1.35 5.67 -0.3 5.34 -2 5 C-1.125 1.125 -1.125 1.125 0 0 Z " fill="#2C2F27" transform="translate(250,32)"/>
<path d="M0 0 C0.66 0.33 1.32 0.66 2 1 C1.649375 1.556875 1.29875 2.11375 0.9375 2.6875 C-0.21845993 5.53886783 0.19032562 7.08517222 1 10 C0.67 9.34 0.34 8.68 0 8 C-0.99 8 -1.98 8 -3 8 C-3.1875 5.125 -3.1875 5.125 -3 2 C-2.01 1.34 -1.02 0.68 0 0 Z " fill="#0C0D09" transform="translate(268,126)"/>
<path d="M0 0 C0.66 0.33 1.32 0.66 2 1 C1.67 1.66 1.34 2.32 1 3 C1.66 3 2.32 3 3 3 C3 3.99 3 4.98 3 6 C1.35 6.66 -0.3 7.32 -2 8 C-2 4.23312136 -1.76462683 3.08809695 0 0 Z " fill="#090906" transform="translate(198,63)"/>
<path d="M0 0 C0.66 0 1.32 0 2 0 C2.79953138 3.28696233 3.09658936 4.71023192 2 8 C1.01 7.67 0.02 7.34 -1 7 C-1.04254356 5.00045254 -1.04080783 2.99958364 -1 1 C-0.67 0.67 -0.34 0.34 0 0 Z " fill="#181C0D" transform="translate(186,328)"/>
<path d="M0 0 C0.66 0 1.32 0 2 0 C1.67 2.31 1.34 4.62 1 7 C1.66 7.33 2.32 7.66 3 8 C2.02149805 9.02104551 1.02019573 10.0206121 0 11 C-0.33 11 -0.66 11 -1 11 C-0.67 7.37 -0.34 3.74 0 0 Z M-3 11 C-2.01 11.495 -2.01 11.495 -1 12 C-1.66 12.66 -2.32 13.32 -3 14 C-3 13.01 -3 12.02 -3 11 Z " fill="#2A2C29" transform="translate(226,297)"/>
<path d="M0 0 C0.66 0 1.32 0 2 0 C2 0.99 2 1.98 2 3 C2.99 2.67 3.98 2.34 5 2 C5.33 3.65 5.66 5.3 6 7 C5.34 6.67 4.68 6.34 4 6 C3.34 6.66 2.68 7.32 2 8 C0.23537317 4.91190305 0 3.76687864 0 0 Z " fill="#1E201D" transform="translate(220,296)"/>
<path d="M0 0 C0.66 0 1.32 0 2 0 C1.67 4.29 1.34 8.58 1 13 C0.67 13 0.34 13 0 13 C-0.33 10.36 -0.66 7.72 -1 5 C-1.99 5 -2.98 5 -4 5 C-4 4.34 -4 3.68 -4 3 C-2.68 2.67 -1.36 2.34 0 2 C0 1.34 0 0.68 0 0 Z " fill="#2F3617" transform="translate(196,147)"/>
<path d="M0 0 C-0.66 1.32 -1.32 2.64 -2 4 C-2.66 4 -3.32 4 -4 4 C-4.33 6.64 -4.66 9.28 -5 12 C-5.33 12 -5.66 12 -6 12 C-6.36521739 4.69565217 -6.36521739 4.69565217 -4.6875 1.5 C-3 0 -3 0 0 0 Z " fill="#262916" transform="translate(270,122)"/>
<path d="M0 0 C0.66 0 1.32 0 2 0 C1.67 4.62 1.34 9.24 1 14 C0.67 14 0.34 14 0 14 C0 11.03 0 8.06 0 5 C-0.66 4.67 -1.32 4.34 -2 4 C-1.34 2.68 -0.68 1.36 0 0 Z " fill="#242623" transform="translate(250,163)"/>
<path d="M0 0 C0.99 0 1.98 0 3 0 C3 2.64 3 5.28 3 8 C2.01 8 1.02 8 0 8 C0 5.36 0 2.72 0 0 Z " fill="#1E1D25" transform="translate(217,152)"/>
<path d="M0 0 C0.99 0 1.98 0 3 0 C3 0.66 3 1.32 3 2 C2 3 1 4 0 5 C-0.7734375 6.3303125 -0.7734375 6.3303125 -1.5625 7.6875 C-2.2740625 8.8321875 -2.2740625 8.8321875 -3 10 C-3.66 10 -4.32 10 -5 10 C-3.86059291 6.14354522 -2.82205934 2.93494171 0 0 Z " fill="#212410" transform="translate(280,126)"/>
<path d="M0 0 C0.66 0.33 1.32 0.66 2 1 C1.34 2.98 0.68 4.96 0 7 C-0.66 7 -1.32 7 -2 7 C-2 6.01 -2 5.02 -2 4 C-2.66 4 -3.32 4 -4 4 C-3.67 3.01 -3.34 2.02 -3 1 C-2.01 0.67 -1.02 0.34 0 0 Z " fill="#171717" transform="translate(171,112)"/>
<path d="M0 0 C1.98 0.66 3.96 1.32 6 2 C6 3.32 6 4.64 6 6 C5.01 6.33 4.02 6.66 3 7 C0 3.375 0 3.375 0 0 Z " fill="#0B0B0B" transform="translate(409,24)"/>
<path d="M0 0 C0.33 0 0.66 0 1 0 C1 2.97 1 5.94 1 9 C-0.32 8.34 -1.64 7.68 -3 7 C-2.01 4.69 -1.02 2.38 0 0 Z " fill="#1A191E" transform="translate(138,200)"/>
<path d="M0 0 C-0.66 1.32 -1.32 2.64 -2 4 C-2.66 4 -3.32 4 -4 4 C-3.34 6.31 -2.68 8.62 -2 11 C-2.99 10.67 -3.98 10.34 -5 10 C-5.3669579 3.51707705 -5.3669579 3.51707705 -3.625 1.0625 C-2 0 -2 0 0 0 Z " fill="#282828" transform="translate(165,165)"/>
<path d="M0 0 C0 3 0 3 -2 6 C-5.125 6.1875 -5.125 6.1875 -8 6 C-8 5.01 -8 4.02 -8 3 C-6.8553125 3.0928125 -6.8553125 3.0928125 -5.6875 3.1875 C-2.95474688 3.25898085 -2.95474688 3.25898085 -1.1875 1.5 C-0.795625 1.005 -0.40375 0.51 0 0 Z " fill="#0D0E08" transform="translate(186,127)"/>
<path d="M0 0 C0.99 0.33 1.98 0.66 3 1 C2.34 3.31 1.68 5.62 1 8 C0.54625 7.505 0.0925 7.01 -0.375 6.5 C-1.87635519 4.77390663 -1.87635519 4.77390663 -4 5 C-2.25 1.125 -2.25 1.125 0 0 Z " fill="#1D1D1C" transform="translate(201,93)"/>
<path d="M0 0 C0 1.65 0 3.3 0 5 C-0.598125 4.649375 -1.19625 4.29875 -1.8125 3.9375 C-4.10813214 2.66695302 -4.10813214 2.66695302 -7 4 C-7.66 3.67 -8.32 3.34 -9 3 C-9 2.34 -9 1.68 -9 1 C-2.25 0 -2.25 0 0 0 Z " fill="#30341A" transform="translate(198,91)"/>
<path d="M0 0 C0.99 0.33 1.98 0.66 3 1 C2.34 1.66 1.68 2.32 1 3 C1.33 3.66 1.66 4.32 2 5 C0.02 5.66 -1.96 6.32 -4 7 C-3.6875 4.625 -3.6875 4.625 -3 2 C-2.01 1.34 -1.02 0.68 0 0 Z " fill="#272A1A" transform="translate(164,87)"/>
<path d="M0 0 C2.31 0 4.62 0 7 0 C6.34 1.65 5.68 3.3 5 5 C3.0625 4.1875 3.0625 4.1875 1 3 C0.67 2.01 0.34 1.02 0 0 Z " fill="#292B26" transform="translate(268,0)"/>
<path d="M0 0 C0.33 0.66 0.66 1.32 1 2 C1.66 2 2.32 2 3 2 C2.34 3.32 1.68 4.64 1 6 C-0.32 5.34 -1.64 4.68 -3 4 C-3 3.01 -3 2.02 -3 1 C-2.01 0.67 -1.02 0.34 0 0 Z " fill="#2D2F2C" transform="translate(301,384)"/>
<path d="M0 0 C0.33 0.66 0.66 1.32 1 2 C1.66 2.33 2.32 2.66 3 3 C1.02 5.31 -0.96 7.62 -3 10 C-3.66 8.68 -4.32 7.36 -5 6 C-4.360625 5.7525 -3.72125 5.505 -3.0625 5.25 C-0.81258459 4.18437567 -0.81258459 4.18437567 -0.25 1.875 C-0.1675 1.25625 -0.085 0.6375 0 0 Z " fill="#20221F" transform="translate(231,329)"/>
<path d="M0 0 C1.485 0.99 1.485 0.99 3 2 C3 2.99 3 3.98 3 5 C1 6.6875 1 6.6875 -1 8 C-1.04241723 5.66705225 -1.04092937 3.33297433 -1 1 C-0.67 0.67 -0.34 0.34 0 0 Z " fill="#1A1A1A" transform="translate(180,200)"/>
<path d="M0 0 C0.66 1.32 1.32 2.64 2 4 C2.66 2.68 3.32 1.36 4 0 C4 2.64 4 5.28 4 8 C2.68 7.67 1.36 7.34 0 7 C0 4.69 0 2.38 0 0 Z " fill="#1B1926" transform="translate(200,176)"/>
<path d="M0 0 C0.33 0 0.66 0 1 0 C1.33 3.3 1.66 6.6 2 10 C2.66 10 3.32 10 4 10 C3.67 10.99 3.34 11.98 3 13 C2.01 12.67 1.02 12.34 0 12 C0 8.04 0 4.08 0 0 Z " fill="#272A15" transform="translate(224,112)"/>
<path d="M0 0 C1.231394 3.69418201 0.64432764 6.2056261 0 10 C-0.99 9.34 -1.98 8.68 -3 8 C-2.45276317 4.62537285 -1.9451 2.91765 0 0 Z " fill="#1C1C1C" transform="translate(59,73)"/>
<path d="M0 0 C0.99 0 1.98 0 3 0 C3 0.66 3 1.32 3 2 C5.31 2.33 7.62 2.66 10 3 C10 3.66 10 4.32 10 5 C3.375 4.25 3.375 4.25 0 2 C0 1.34 0 0.68 0 0 Z " fill="#2A2B2A" transform="translate(232,61)"/>
<path d="M0 0 C0.99 0.33 1.98 0.66 3 1 C3 5.29 3 9.58 3 14 C2.67 14 2.34 14 2 14 C2 10.7 2 7.4 2 4 C1.34 4 0.68 4 0 4 C0 2.68 0 1.36 0 0 Z " fill="#2A3018" transform="translate(161,242)"/>
<path d="M0 0 C2.31 0 4.62 0 7 0 C7 0.99 7 1.98 7 3 C5.02 3 3.04 3 1 3 C0.67 2.01 0.34 1.02 0 0 Z " fill="#22231F" transform="translate(250,73)"/>
<path d="M0 0 C3.01468588 2.00979059 3.83789182 2.70736015 5 6 C4.625 8.25 4.625 8.25 4 10 C3.34 10 2.68 10 2 10 C1.33333333 6.66666667 0.66666667 3.33333333 0 0 Z " fill="#222222" transform="translate(385,72)"/>
<path d="M0 0 C0.99 0 1.98 0 3 0 C2.67 1.65 2.34 3.3 2 5 C1.01 5.33 0.02 5.66 -1 6 C-1.042721 4.33388095 -1.04063832 2.66617115 -1 1 C-0.67 0.67 -0.34 0.34 0 0 Z " fill="#222414" transform="translate(193,49)"/>
<path d="M0 0 C2.16874252 0.50603992 3.99967627 0.99983813 6 2 C5.67 3.32 5.34 4.64 5 6 C3.68 5.67 2.36 5.34 1 5 C1.33 3.68 1.66 2.36 2 1 C1.34 0.67 0.68 0.34 0 0 Z " fill="#1C1E19" transform="translate(208,49)"/>
<path d="M0 0 C0.99 0 1.98 0 3 0 C3.33 0.99 3.66 1.98 4 3 C3.01 3.33 2.02 3.66 1 4 C0.67 4.99 0.34 5.98 0 7 C-0.93423645 3.98968256 -1.04449911 3.13349732 0 0 Z " fill="#242623" transform="translate(273,281)"/>
<path d="M0 0 C-1 3 -1 3 -2 5 C-4.0625 5.625 -4.0625 5.625 -6 6 C-6 4.68 -6 3.36 -6 2 C-3 0 -3 0 0 0 Z " fill="#1F1F1F" transform="translate(152,210)"/>
<path d="M0 0 C4.95 0.99 4.95 0.99 10 2 C9.01 2.33 8.02 2.66 7 3 C6.67 3.66 6.34 4.32 6 5 C6 4.34 6 3.68 6 3 C3.03 2.505 3.03 2.505 0 2 C0 1.34 0 0.68 0 0 Z " fill="#0F1106" transform="translate(170,125)"/>
<path d="M0 0 C0.99 0.33 1.98 0.66 3 1 C2.34 2.32 1.68 3.64 1 5 C-0.32 4.67 -1.64 4.34 -3 4 C-3 3.34 -3 2.68 -3 2 C-2.01 1.34 -1.02 0.68 0 0 Z " fill="#070706" transform="translate(212,104)"/>
<path d="M0 0 C4.455 0.99 4.455 0.99 9 2 C8.67 2.99 8.34 3.98 8 5 C6.68 4.67 5.36 4.34 4 4 C4 3.34 4 2.68 4 2 C2.68 1.34 1.36 0.68 0 0 Z " fill="#1A1D13" transform="translate(232,64)"/>
<path d="M0 0 C2.31 0.33 4.62 0.66 7 1 C7 1.66 7 2.32 7 3 C5.02 3.33 3.04 3.66 1 4 C0.67 2.68 0.34 1.36 0 0 Z " fill="#2A2C27" transform="translate(192,15)"/>
<path d="M0 0 C0.99 0 1.98 0 3 0 C2.125 4.75 2.125 4.75 1 7 C0.34 7 -0.32 7 -1 7 C-0.7525 6.1028125 -0.7525 6.1028125 -0.5 5.1875 C0.1114124 2.88655664 0.1114124 2.88655664 0 0 Z " fill="#262626" transform="translate(306,205)"/>
<path d="M0 0 C1.32 0 2.64 0 4 0 C4 1.98 4 3.96 4 6 C2.68 5.34 1.36 4.68 0 4 C0 2.68 0 1.36 0 0 Z " fill="#1D2015" transform="translate(251,42)"/>
</svg>
