<?xml version="1.0" encoding="UTF-8"?>
<svg xmlns="http://www.w3.org/2000/svg" xmlns:xlink="http://www.w3.org/1999/xlink" width="96px" height="96px" viewBox="0 0 96 96" version="1.1">
<g id="surface1">
<path style=" stroke:none;fill-rule:nonzero;fill:rgb(6.666667%,44.705883%,72.156864%);fill-opacity:1;" d="M 18 84 L 12 9 L 84 9 L 78 84 L 48 93 Z M 18 84 "/>
<path style=" stroke:none;fill-rule:nonzero;fill:rgb(20%,66.666669%,86.666667%);fill-opacity:1;" d="M 78 15 L 48 15 L 48 88.5 L 72 81 Z M 78 15 "/>
<path style=" stroke:none;fill-rule:nonzero;fill:rgb(100%,100%,100%);fill-opacity:1;" d="M 58.5 52.5 L 28.5 52.5 L 27 42 L 51 34.5 L 27 34.5 L 25.5 25.5 L 72 25.5 L 70.5 36 L 51 43.5 L 69 43.5 L 66 72 L 48 78 L 30 72 L 28.5 57 L 37.5 57 L 39 64.5 L 48 67.5 L 57 64.5 Z M 58.5 52.5 "/>
</g>
</svg>
