<?xml version="1.0" encoding="UTF-8"?>
<svg xmlns="http://www.w3.org/2000/svg" xmlns:xlink="http://www.w3.org/1999/xlink" width="96px" height="96px" viewBox="0 0 96 96" version="1.1">
<g id="surface1">
<path style=" stroke:none;fill-rule:nonzero;fill:rgb(33.725491%,23.921569%,48.627451%);fill-opacity:1;" d="M 0 83.621094 C 0 90.457031 5.542969 96 12.378906 96 L 83.621094 96 C 90.457031 96 96 90.457031 96 83.621094 L 96 12.378906 C 96 5.542969 90.457031 0 83.621094 0 L 12.378906 0 C 5.542969 0 0 5.542969 0 12.378906 Z M 0 83.621094 "/>
<path style=" stroke:none;fill-rule:nonzero;fill:rgb(100%,100%,100%);fill-opacity:1;" d="M 39.808594 42.464844 L 39.808594 28.871094 L 51.777344 28.871094 C 52.914062 28.871094 54.015625 28.964844 55.074219 29.152344 C 56.132812 29.34375 57.066406 29.683594 57.882812 30.171875 C 58.695312 30.660156 59.347656 31.339844 59.835938 32.207031 C 60.324219 33.074219 60.566406 34.1875 60.566406 35.542969 C 60.566406 37.988281 59.835938 39.75 58.371094 40.835938 C 56.90625 41.921875 55.03125 42.464844 52.753906 42.464844 Z M 27.027344 18.9375 L 27.027344 77.0625 L 55.195312 77.0625 C 57.800781 77.0625 60.335938 76.738281 62.808594 76.085938 C 65.277344 75.433594 67.472656 74.429688 69.402344 73.074219 C 71.328125 71.714844 72.859375 69.964844 74 67.824219 C 75.140625 65.679688 75.710938 63.140625 75.710938 60.210938 C 75.710938 56.574219 74.828125 53.46875 73.0625 50.890625 C 71.300781 48.3125 68.628906 46.507812 65.046875 45.476562 C 67.652344 44.226562 69.617188 42.628906 70.949219 40.671875 C 72.277344 38.71875 72.941406 36.277344 72.941406 33.347656 C 72.941406 30.632812 72.496094 28.355469 71.597656 26.507812 C 70.703125 24.664062 69.441406 23.183594 67.8125 22.070312 C 66.183594 20.960938 64.230469 20.160156 61.953125 19.671875 C 59.671875 19.183594 57.148438 18.9375 54.382812 18.9375 Z M 39.808594 67.128906 L 39.808594 51.175781 L 53.730469 51.175781 C 56.496094 51.175781 58.722656 51.8125 60.40625 53.089844 C 62.085938 54.363281 62.929688 56.492188 62.929688 59.476562 C 62.929688 61 62.671875 62.246094 62.15625 63.222656 C 61.640625 64.199219 60.949219 64.972656 60.078125 65.542969 C 59.210938 66.113281 58.207031 66.519531 57.066406 66.765625 C 55.929688 67.007812 54.734375 67.128906 53.484375 67.128906 Z M 39.808594 67.128906 "/>
</g>
</svg>
