<?xml version="1.0" encoding="UTF-8"?>
<svg xmlns="http://www.w3.org/2000/svg" xmlns:xlink="http://www.w3.org/1999/xlink" width="96px" height="px" viewBox="0 0 97 36" version="1.1">
<g id="surface1">
<path style=" stroke:none;fill-rule:nonzero;fill:rgb(100%,98.823529%,88.235294%);fill-opacity:1;" d="M 28.246094 16.8125 C 28.246094 16.8125 28.246094 16.824219 28.246094 16.828125 L 26.972656 22.429688 C 26.902344 22.746094 26.589844 22.976562 26.230469 22.976562 L 24.691406 22.976562 C 24.578125 22.976562 24.472656 23.054688 24.441406 23.164062 C 23.023438 28.039062 21.097656 31.394531 18.554688 33.40625 C 16.394531 35.117188 13.730469 35.917969 10.171875 35.917969 C 6.96875 35.917969 4.816406 34.875 2.984375 32.824219 C 0.566406 30.109375 -0.433594 25.664062 0.171875 20.308594 C 1.265625 10.257812 6.417969 0.113281 16.34375 0.113281 C 19.363281 0.0859375 21.734375 1.027344 23.382812 2.910156 C 25.125 4.898438 26.011719 7.894531 26.015625 11.816406 C 26.011719 12.171875 25.71875 12.457031 25.367188 12.457031 L 18.09375 12.457031 C 17.835938 12.457031 17.605469 12.222656 17.609375 11.964844 C 17.550781 9.253906 16.757812 7.933594 15.175781 7.933594 C 12.390625 7.933594 10.746094 11.761719 9.871094 13.882812 C 8.652344 16.847656 8.035156 20.066406 8.15625 23.273438 C 8.210938 24.765625 8.449219 26.867188 9.851562 27.734375 C 11.09375 28.507812 12.867188 27.996094 13.941406 27.140625 C 15.011719 26.289062 15.875 24.808594 16.238281 23.464844 C 16.289062 23.277344 16.292969 23.128906 16.246094 23.066406 C 16.195312 23 16.050781 22.984375 15.945312 22.984375 L 14.078125 22.984375 C 13.878906 22.984375 13.679688 22.890625 13.558594 22.742188 C 13.457031 22.613281 13.417969 22.460938 13.453125 22.304688 L 14.730469 16.699219 C 14.792969 16.410156 15.050781 16.195312 15.367188 16.15625 L 15.367188 16.140625 L 27.621094 16.140625 C 27.652344 16.140625 27.683594 16.140625 27.710938 16.148438 C 28.027344 16.1875 28.25 16.488281 28.246094 16.8125 Z M 28.246094 16.8125 "/>
<path style=" stroke:none;fill-rule:nonzero;fill:rgb(100%,98.823529%,88.235294%);fill-opacity:1;" d="M 49.347656 10.378906 C 49.34375 10.730469 49.050781 11.015625 48.699219 11.015625 L 42 11.015625 C 41.5625 11.015625 41.195312 10.65625 41.195312 10.21875 C 41.195312 8.242188 40.515625 7.277344 39.132812 7.277344 C 37.75 7.277344 36.859375 8.136719 36.832031 9.640625 C 36.804688 11.3125 37.738281 12.835938 40.402344 15.449219 C 43.910156 18.777344 45.316406 21.726562 45.25 25.621094 C 45.140625 31.925781 40.902344 36 34.457031 36 C 31.164062 36 28.648438 35.109375 26.976562 33.351562 C 25.277344 31.566406 24.5 28.949219 24.664062 25.570312 C 24.671875 25.21875 24.960938 24.933594 25.3125 24.933594 L 32.242188 24.933594 C 32.429688 24.933594 32.617188 25.027344 32.742188 25.183594 C 32.851562 25.320312 32.894531 25.488281 32.867188 25.644531 C 32.792969 26.863281 33.003906 27.773438 33.476562 28.277344 C 33.78125 28.605469 34.203125 28.769531 34.730469 28.769531 C 36.011719 28.769531 36.761719 27.855469 36.789062 26.261719 C 36.8125 24.886719 36.382812 23.675781 34.035156 21.234375 C 31.003906 18.238281 28.285156 15.144531 28.371094 10.277344 C 28.421875 7.457031 29.527344 4.875 31.492188 3.011719 C 33.566406 1.039062 36.40625 0 39.703125 0 C 43.003906 0.0234375 45.507812 0.976562 47.140625 2.832031 C 48.6875 4.589844 49.433594 7.128906 49.351562 10.378906 Z M 49.347656 10.378906 "/>
<path style=" stroke:none;fill-rule:nonzero;fill:rgb(100%,98.823529%,88.235294%);fill-opacity:1;" d="M 70.109375 34.8125 L 70.152344 1.292969 C 70.160156 0.941406 69.878906 0.65625 69.527344 0.65625 L 59.160156 0.65625 C 58.8125 0.65625 58.65625 0.957031 58.558594 1.160156 L 43.546875 34.609375 L 43.546875 34.613281 C 43.546875 34.613281 43.542969 34.621094 43.542969 34.621094 C 43.375 35.035156 43.691406 35.476562 44.132812 35.476562 L 51.378906 35.476562 C 51.769531 35.476562 52.027344 35.355469 52.15625 35.105469 L 53.59375 31.605469 C 53.773438 31.140625 53.804688 31.097656 54.308594 31.097656 L 61.234375 31.097656 C 61.714844 31.097656 61.722656 31.109375 61.714844 31.582031 L 61.5625 34.835938 C 61.554688 35.1875 61.835938 35.476562 62.1875 35.476562 L 69.507812 35.476562 C 69.695312 35.476562 69.871094 35.394531 69.984375 35.257812 C 70.089844 35.132812 70.132812 34.976562 70.109375 34.8125 Z M 57.285156 23.621094 C 57.21875 23.621094 57.164062 23.621094 57.121094 23.617188 C 57.011719 23.605469 56.941406 23.503906 56.96875 23.394531 C 56.980469 23.347656 57 23.28125 57.03125 23.203125 L 62.222656 10.207031 C 62.269531 10.078125 62.324219 9.953125 62.382812 9.832031 C 62.46875 9.65625 62.570312 9.644531 62.601562 9.773438 C 62.628906 9.882812 62.007812 23.117188 62.007812 23.117188 C 61.957031 23.613281 61.9375 23.632812 61.453125 23.671875 L 57.289062 23.625 L 57.28125 23.625 Z M 57.285156 23.621094 "/>
<path style=" stroke:none;fill-rule:nonzero;fill:rgb(100%,98.823529%,88.235294%);fill-opacity:1;" d="M 84.878906 0.65625 L 79.375 0.65625 C 79.082031 0.65625 78.757812 0.808594 78.679688 1.160156 C 78.679688 1.160156 71.023438 34.792969 71.023438 34.796875 C 70.988281 34.953125 71.023438 35.105469 71.125 35.234375 C 71.246094 35.382812 71.445312 35.476562 71.644531 35.476562 L 78.523438 35.476562 C 78.894531 35.476562 79.148438 35.292969 79.214844 34.972656 C 79.214844 34.972656 80.046875 31.171875 80.050781 31.160156 C 80.109375 30.863281 80.007812 30.632812 79.746094 30.492188 C 79.621094 30.429688 79.496094 30.363281 79.375 30.300781 L 78.183594 29.671875 L 76.996094 29.046875 C 76.839844 28.964844 76.6875 28.882812 76.535156 28.804688 C 76.460938 28.765625 76.414062 28.6875 76.414062 28.597656 C 76.417969 28.472656 76.523438 28.367188 76.652344 28.367188 L 80.421875 28.386719 C 81.546875 28.390625 82.675781 28.308594 83.785156 28.105469 C 91.589844 26.644531 96.777344 20.320312 96.925781 11.714844 C 97.054688 4.375 93 0.652344 84.882812 0.652344 Z M 83.003906 20.671875 L 82.859375 20.671875 C 82.527344 20.671875 82.46875 20.632812 82.457031 20.621094 C 82.453125 20.613281 84.632812 10.9375 84.632812 10.921875 C 84.6875 10.644531 84.6875 10.480469 84.515625 10.386719 C 84.296875 10.265625 81.117188 8.566406 81.117188 8.566406 C 81.039062 8.527344 80.996094 8.445312 80.996094 8.359375 C 81 8.234375 81.101562 8.128906 81.230469 8.128906 L 86.261719 8.128906 C 87.828125 8.179688 88.699219 9.597656 88.660156 12.015625 C 88.585938 16.207031 86.617188 20.523438 83.003906 20.671875 Z M 83.003906 20.671875 "/>
<path style=" stroke:none;fill-rule:nonzero;fill:rgb(100%,98.823529%,88.235294%);fill-opacity:1;" d="M 90.476562 35.476562 C 91.609375 35.476562 92.492188 34.601562 92.492188 33.429688 C 92.492188 32.253906 91.609375 31.382812 90.476562 31.382812 C 89.34375 31.382812 88.445312 32.253906 88.445312 33.429688 C 88.445312 34.601562 89.339844 35.476562 90.476562 35.476562 Z M 88.929688 33.421875 C 88.929688 32.421875 89.519531 31.769531 90.476562 31.769531 C 91.429688 31.769531 92.011719 32.421875 92.011719 33.421875 C 92.011719 34.421875 91.429688 35.078125 90.476562 35.078125 C 89.519531 35.078125 88.929688 34.425781 88.929688 33.421875 Z M 89.589844 34.519531 L 90.230469 34.519531 L 90.230469 33.730469 L 90.417969 33.730469 C 90.898438 33.730469 90.691406 34.425781 90.808594 34.519531 L 91.472656 34.519531 L 91.472656 34.484375 C 91.347656 34.453125 91.550781 33.582031 90.992188 33.488281 L 90.992188 33.476562 C 91.261719 33.421875 91.4375 33.222656 91.4375 32.929688 C 91.4375 32.507812 91.132812 32.277344 90.640625 32.277344 L 89.585938 32.277344 L 89.585938 34.519531 Z M 90.230469 33.257812 L 90.230469 32.730469 L 90.453125 32.730469 C 90.671875 32.730469 90.796875 32.800781 90.796875 32.992188 C 90.796875 33.171875 90.671875 33.253906 90.453125 33.253906 L 90.230469 33.253906 Z M 90.230469 33.257812 "/>
</g>
</svg>
