<svg version="1.2" xmlns="http://www.w3.org/2000/svg" viewBox="0 0 334 62" width="334" height="62"><style>.a{fill:#f44336}</style><path fill-rule="evenodd" d="m16.4 54h-13.5v-46l-2.1-4h15.7l7.8 16.2 7.5 16.2-2.1-19v-13.4h13.6v50h-13l-10.1-19.8-6.3-12.3 2.5 16.4zm32.8 0v-50h14.6v50zm51.9-3.6l-0.4 0.5q-0.4 0.4-1.4 1.1-1 0.6-2.4 1.3-1.4 0.7-3.7 1.1-2.3 0.5-4.9 0.5-5.6 0-9.6-1.9-3.9-1.9-6.2-5.4-2.2-3.6-3.2-8.1-1-4.5-1-10.4 0-6.3 1-10.9 1-4.6 3.2-8.1 2.3-3.5 6.4-5.2 4-1.8 9.7-1.8 2.7 0 5 0.5 2.3 0.5 3.6 1.1 1.4 0.6 2.5 1.3 1.1 0.8 1.3 1.1 0.3 0.3 0.5 0.5l-0.7 9.8h-6.5l-2.2-5.1q-0.7-0.2-1.3-0.2-2.8 0-4.3 1.3-1.6 1.3-2.4 5.1-0.8 3.8-0.8 10.8 0 4.3 0.5 7.4 0.6 3.2 1.3 4.9 0.8 1.6 1.9 2.7 1 1 1.9 1.3 0.8 0.2 1.8 0.2 2.2 0 4.6-0.5 2.4-0.5 3.9-1.6zm28 3.5q-0.5-0.6-2.2-5-1.7-4.4-3.9-9.9-2.3-5.5-4-8.4v23.3h-14.1v-50h14.1v23.9l10.7-23.9h14.2l-12.7 23.5q1.2 0.8 3.2 4.6 2.1 3.8 3.9 8 1.8 4.2 3.7 8.4 1.9 4.2 2.8 5.5zm49.5-3.5l-0.4 0.4q-0.4 0.5-1.4 1.2-1 0.6-2.4 1.3-1.4 0.6-3.7 1-2.3 0.5-4.9 0.5-5.6 0-9.6-1.8-4-1.9-6.2-5.4-2.2-3.6-3.2-8.1-1-4.5-1-10.5 0-6.3 1-10.8 1-4.6 3.2-8.1 2.3-3.5 6.3-5.3 4.1-1.7 9.8-1.7 2.7 0 5 0.5 2.3 0.4 3.6 1 1.4 0.6 2.5 1.4 1.1 0.8 1.3 1.1 0.3 0.3 0.5 0.4l-0.7 9.8h-6.5l-2.2-5q-0.8-0.2-1.3-0.2-2.8 0-4.4 1.3-1.5 1.3-2.3 5.1-0.8 3.7-0.8 10.8 0 4.2 0.5 7.4 0.5 3.1 1.3 4.8 0.8 1.7 1.8 2.7 1.1 1.1 2 1.4 0.8 0.2 1.8 0.2 2.2 0 4.6-0.5 2.4-0.6 3.9-1.7zm28.3 3.6l-1.9-8h-12.1l-1.6 8h-12.6l13-46.6-1-3.4h17.6l14.3 50zm-8.5-35.4l-3.8 18.7h8.3zm25.9 35.3v-50h14.1v38.6h12.7v11.4zm39.2 0l-14.1-50h15.7l3.7 17.3 3.9 18 3.6-18 3.8-17.3h11.2l-12.3 50zm46.4 0.9q-3.6 0-6.4-0.6-2.8-0.7-4.9-1.8-2-1.2-3.6-3-1.5-1.8-2.4-3.8-0.9-2-1.5-4.8-0.5-2.8-0.7-5.5-0.2-2.8-0.2-6.2 0-5.1 0.5-8.9 0.5-3.8 2-7.2 1.4-3.3 3.8-5.4 2.5-2.1 6.2-3.3 3.9-1.2 9.1-1.2 3.6 0 6.4 0.7 2.9 0.6 4.9 1.8 2.1 1.1 3.6 3 1.5 1.8 2.4 3.9 1 2 1.5 4.8 0.6 2.8 0.8 5.5 0.2 2.7 0.2 6.2 0 5.1-0.6 8.9-0.5 3.8-2 7.1-1.4 3.3-3.9 5.4-2.4 2.1-6.2 3.3-3.8 1.1-9 1.1zm-4-20.2q0 7.1 1 9.8 1.1 2.8 3.9 2.8 2 0 3-1 1-1 1.5-4.1 0.6-3.2 0.6-9.4v-10.3q0-6.1-1.2-9.1-1.2-3-3.9-3-2.8 0-3.9 3-1 2.9-1 10.6z"/><path fill-rule="evenodd" class="a" d="m134.4 53.9q-1-3.7-1.8-7.4-0.9-3.8-1.7-7.5-0.8-3.8-1.7-7.5-0.9-3.8-2-7.4 0-0.8 0.4-1.2 0.4-0.5 1-0.7 1.3-0.3 2.1 0 0.8 0.3 1.3 1 0.5 0.7 0.8 1.6 0.4 1 0.7 1.9 1.1 1.1 2.4 2.2 1.3 0.9 2.4 1.9 0 0.1 0.2 0.3 0.1 0.2 0.2 0.2 0.5 0.4 1.3 1.2 0.8 0.7 1.6 1.4 0.7 0.6 1.3 1.1 0.6 0.5 0.6 0.5l0.3 0.2 4.8 4.2q0.3 0.1 0.5 0.1h0.1q-2.5-6.2-4.7-12.7-2.3-6.6-4-13.1l-0.8-3.1q0.2-0.9 1.4-1.2 1.1-0.3 1.8 0.1 0.7 0.4 1.1 1.2 0.4 0.7 0.7 1.7 0.2 0.9 0.5 1.7 0 0 0.1 0.2 0.1 0.1 0.3 0.6 0.2 0.5 0.6 1.6 0.4 1 1 2.8 0.7 1.8 1.6 4.6 0.9 2.8 2.3 6.9l0.2 1 5.7 13q0.2 0.4 0.9 1.3 0.7 0.9 0.9 1.4 0.3 1.3-0.2 2.3-0.5 0.9-1.8 1.3-0.2 0-0.5 0-0.4-0.1-0.7-0.2-0.4-0.1-0.8-0.2-0.3-0.2-0.4-0.3l-13.4-11.2q-0.1 0-0.2-0.1-0.1-0.3-0.2-0.4-0.5-0.4-1.3-1-0.9-0.7-1.6-1.4-0.8-0.7-1.4-1.1-0.6-0.5-0.6-0.6l-0.3-0.2q1.2 5.9 2.6 11.8 1.3 5.8 3.1 11.6 0.1 0.7-0.5 1.4-0.4 0.7-1.1 0.9-1.2 0.3-2.1-0.1-0.8-0.5-1.6-1.3zm26-10.4q-0.1-0.3-0.5-1.9-0.5-1.6-1.1-3.9-0.6-2.3-1.3-5.1-0.6-2.8-1.1-5.7-0.4-3-0.5-5.7 0-2.9 0.5-5.1-0.1-1.7 1.2-2.7 1.2-1 3.7-1.8 1.6-0.5 3 0.1 1.3 0.5 2.5 1.6 1.1 1 2.1 2.3 1 1.2 1.8 2.3l0.1 0.3q0.7 1.1 1.6 3.4 0.8 2.3 1.6 4.9 0.8 2.6 1.5 5 0.6 2.4 1 3.7 0.5 1.8 0.6 4.5 0.2 2.6-0.3 5.1-0.4 2.5-1.7 4.5-1.2 2.1-3.6 2.7-2 0.5-3.8-0.1-1.8-0.6-3.3-1.9-1.5-1.3-2.5-3.1-1.1-1.7-1.5-3.4zm6.9 2.5q0.3 0.6 1.1 1.2 0.7 0.5 1.5 0.3l0.5-0.1q1.9-3 1.9-6.2 0-3.2-0.9-6.5-0.2-0.8-0.7-2.4-0.5-1.6-1.2-3.6-0.7-2-1.5-4.2-0.9-2.1-1.7-4-0.9-1.9-1.8-3.2-0.9-1.3-1.7-1.7 0 0.1-0.1 0.3 0 0.2 0 0.3-0.8 1.9-1.1 4.9-0.3 3 0.1 6.9 0.5 3.8 1.8 8.4 1.4 4.6 3.8 9.6zm20.6-26.8q-0.2-0.5-0.5-1.2-0.3-0.7-0.6-1.4-0.2-0.7-0.4-1.1-0.2-0.5-0.2-0.5l-0.5 0.1-6.3 3.9q-0.2 0.6-0.9 0.8-0.7 0.2-1 0.3-0.9 0.2-2-0.3-1-0.6-1.3-1.5-0.2-0.6 0.1-1.3 0.3-0.8 0.9-1.3l8.9-5.6q0-0.7 0.3-1.5 0.4-0.9 1.2-1.1 0.8-0.3 1.5 0 0.7 0.3 1.5 0.3 0.5-0.2 1.7-0.8 1.2-0.7 2.5-1.3 1.4-0.8 2.6-1.4 1.1-0.7 1.6-0.9 0.7-0.3 1-0.6 0.3-0.3 1.1-0.5 1-0.3 2.3 0 1.2 0.3 1.5 1.6 0.2 0.7-0.1 1.5-0.4 0.7-1.2 1.1l-10.7 5.9 0.2 0.6q0.5 1.9 1.3 3.6 0.8 1.7 1.2 3.5l7 18.1 0.4 1.4q0.2 0.7 0.3 1.5 0.2 0.7 0.2 1.4-0.1 0.6-0.4 1.2-0.4 0.5-1.4 0.7-0.7 0.2-1.7-0.1-1-0.4-1.3-1.3l-8.7-23.3z"/></svg>